<svg xmlns="http://www.w3.org/2000/svg" viewBox="0 0 801.45 804.14"><defs><style>.cls-1{fill:#76a9d9;}.cls-2{fill:#68a2a3;}.cls-3{fill:#a1bc32;}.cls-4{fill:#4b73b0;}.cls-5{fill:#f0c734;}.cls-6{fill:#4a72af;}.cls-7{fill:#f0c634;}.cls-8{fill:#67a2a3;}.cls-9{fill:#a1bb32;}.cls-10{fill:#f4f6fa;}.cls-11{fill:#fbfbfb;}.cls-12{fill:#fefefe;}.cls-13{fill:#f8faf1;}.cls-14{fill:#374263;}.cls-15{fill:#3f4a6a;}</style></defs><g id="Layer_2" data-name="Layer 2"><g id="Layer_1-2" data-name="Layer 1"><path class="cls-1" d="M344.93,230.51c-23.08-21-48.11-39.23-75.76-53.71-32.84-17.21-67.26-28.66-104.93-27.57a137.29,137.29,0,0,0-29.23,4,5.39,5.39,0,0,1-5.85-1.64c-7-6.93-14-13.86-21.31-20.53-2.85-2.63-2.63-4.29,0-6.87,14.58-14.29,30.32-27.21,46.5-39.62,35-26.83,72.95-48.2,114.7-62.65a398.78,398.78,0,0,1,75.43-18.2c9.62-1.34,19.28-2,28.94-2.82C374.36.85,375.37,1,376,0h47.79c4.31,1.91,9,1.29,13.47,1.65A435.68,435.68,0,0,1,550.47,26.08c4,1.43,5,2.53,2.32,6.42C518.35,82.12,484.32,132,448.34,180.57a17.29,17.29,0,0,0-1.16,2.06c-5.39-.28-10.34,1.22-15.16,3.51s-9.65,4.15-14.39,6.41c-2.32,1.1-3.45.68-4.07-1.83-.85-3.48-3.61-5.14-6.72-6.15a20.47,20.47,0,0,0-14.91,1.2C371.06,195.16,353.26,207.9,344.93,230.51ZM438,86.09c-.12-4.6.38-9.23-.9-13.77-.8-2.86-2.4-5-5.45-5.25a94.8,94.8,0,0,0-9.54-.19c-2.44,0-2.86,2.52-1.63,3.1,3.41,1.6,1.78,3.94,1.56,6-.6,6-1.48,12-1.95,18-.1,1.38-2.28,3.92,1.37,4.39,3.08.4,3.81-1.41,4.07-3.92.64-6.33,1.28-12.65,2.05-19,.21-1.65-.85-4.54,2.13-4.37,2.49.15,2.82,2.66,2.82,4.83,0,4.62,0,9.24,0,13.85,0,1.92.3,3.87-2.41,4.37-1.35.25-1.49,1.52-1.34,2.69.21,1.55,1.44,1.4,2.54,1.52,6.23.7,6.65.32,6.65-6.13Q438,89.2,438,86.09Zm-94.48-.54h-.15c0-3.49.24-7-.07-10.48s-1.46-7.18-5.63-7.87a54.54,54.54,0,0,0-10-.28c-2.37,0-2.86,2.34-1.49,3.15,3.38,2,1.9,4.65,1.65,7.09-.65,6.15-1.46,12.28-2.29,18.41-.35,2.56,1,2.92,3.08,2.84,2.35-.09,2.22-1.75,2.38-3.35.73-6.94,1.42-13.88,2.29-20.81.15-1.2-.11-3.25,2-3.21a3.06,3.06,0,0,1,2.82,2.81,24.19,24.19,0,0,1,.51,4.23c.07,3.81.05,7.63,0,11.44,0,2,.6,4.26-2.56,4.67-1.46.19-1.25,1.63-1.16,2.73s1.07,1.31,2.05,1.48c5.38.95,6.53.06,6.54-5.22Q343.49,89.37,343.48,85.55ZM416,82.06c-.12-2.25.23-5.26-.57-8.25-1.57-5.89-6-8.4-14.05-6.86-4.83.92-1.73,5.16-2.37,7.82-.43,1.8,0,3.8-.09,5.7,0,1.68.45,2.7,2.4,2.72s3-.78,3-2.76c0-1.75-.11-3.51.07-5.24.17-1.53-1-4,1.68-4.21s4.07,1.64,4.24,4.14c.21,3,.16,6,.16,9.06,0,8.83,0,8.83-8.79,9.78a11,11,0,0,0-1.41.14c-1.19.27-1.34,1.19-1.31,2.19a1.91,1.91,0,0,0,1.47,2.08c8,2.74,15-1.84,15.54-10.31C416.07,86.31,416,84.56,416,82.06ZM269,60.28s-1,0-1.15.42c-1.3,2.7-.72,5.62-.48,8.41.2,2.34,2.45,1.7,3.84,1.55,4.2-.45,4.67,1.15,3.71,4.9-1.69,6.6-2.79,13.36-4.13,20-.24,1.18-1,2.7,1.19,2.76,1.35,0,3,.55,3.62-1.37a20.65,20.65,0,0,0,.7-2.28c1.63-7.61,3-15.28,5-22.8,1.14-4.4-.06-5.74-4.36-5.11-3.22.47-5.77,0-5.06-4.34C272.05,60.89,271.16,60.1,269,60.28Zm39.28,20.18V75.7c0-9.22,0-9.24-9.11-8.82-1.43.06-3.52-.63-3.45,2s2.18,2,3.56,1.85c3.56-.4,4.28,1.28,4.12,4.42a118.37,118.37,0,0,0,0,13.32c.26,4.07-.18,6.94-5.36,6.06-1.38-.23-2.51.34-2.4,2.1.08,1.5,1.07,1.77,2.28,1.77,3.8,0,7.61,0,11.42,0,.94,0,2,0,2.3-1.18s.22-2.36-1.18-2.67c-2.42-.53-2.19-2.34-2.19-4.08C308.22,87.13,308.23,83.79,308.23,80.46Zm56.3,4.21c0,3.5.06,7,0,10.5,0,2,.36,3.3,2.84,3.29s2.75-1.43,2.74-3.39c0-6.68-.05-13.37,0-20,0-1.62-.71-3.61,1.73-4.38,1.13-.36,1.17-1.42,1-2.38-.27-1.52-1.52-1.4-2.62-1.41-3.82,0-7.64,0-11.46,0-1.29,0-2.63,0-2.72,1.83s1.09,2.31,2.45,2.06c5.8-1,6.65,2.06,6.09,6.77A63.3,63.3,0,0,0,364.53,84.67ZM393,80.26h.14c0-3.49,0-7,0-10.48,0-1.52-.07-2.92-2.16-2.9-4,0-7.94,0-11.91,0-1.3,0-2.1.51-2,2s.91,1.88,2.17,1.88c1.75,0,3.51.15,5.24,0,3-.25,3.9,1.13,3.82,3.94-.14,4.76,0,9.52,0,14.29,0,2.08,0,4.17-2.52,5.12-1.58.6-1.37,2-1,3.24.43,1.45,1.78,1.08,2.82,1,3.69-.34,5.24-2.87,5.43-6.15C393.19,88.21,393,84.23,393,80.26ZM382.48,91.48c0-3.48-.06-7,0-10.45.05-2.14-.72-3.24-3-3.28s-2.59,1.16-2.58,3q.07,10.69,0,21.38c0,1.88.48,2.93,2.65,3,2.38,0,3-1,2.93-3.18C382.42,98.45,382.48,95,382.48,91.48Zm-66.75-8.87c0,4.3,0,8.6,0,12.9,0,1.52.06,2.83,2.18,2.89s2.76-.89,2.74-2.86q-.06-12.89,0-25.79c0-1.94-.55-3-2.71-2.89s-2.24,1.28-2.23,2.85C315.75,74,315.73,78.31,315.73,82.61Zm-24.84-7.33c0-2,0-4.11,0-6.17,0-1.6-.75-2.29-2.3-2.25s-3.12-.23-3.17,1.85c-.11,4.11-.07,8.23,0,12.34,0,2.07,1.55,2,3,2s2.48-.41,2.47-2.1C290.87,79.08,290.88,77.18,290.89,75.28Z"/><path class="cls-2" d="M542.55,519.84c39.81,1.88,78.84-2.57,116.73-15.17,32.09-10.67,60.82-26.82,83-53.14a124.6,124.6,0,0,0,18.27-28.44c1.21-2.66,2.74-3.81,5.78-3.65,10.33.56,20.67,1,31,1.2,3.35.06,4.3,1.14,4.15,4.46a332.73,332.73,0,0,1-6.26,50.15,397.53,397.53,0,0,1-62,147.29,423.2,423.2,0,0,1-146.78,134,410.17,410.17,0,0,1-73,31.6c-5.07,1.64-5.1,1.53-5.56-3.88-2.39-28-4.89-56.1-7.29-84.15-1.74-20.29-3.38-40.58-5.1-60.87-.63-7.45-1.33-14.9-2-22.34a31.38,31.38,0,0,0,8.72-11.71c2-4.47,4.43-8.79,6.5-13.24.92-2,1.31-3.35,3.79-1.21,3.17,2.74,7.08,2.45,10.8.92,5-2,8.06-6,10.49-10.58,2.77-5.27,3.7-11.11,5.32-16.73C543.26,549.76,546.17,535.05,542.55,519.84ZM680.89,627c.62,0,.82-.29.69-.86.06-4,0-7.94.2-11.91.08-2.12-.46-3.22-2.88-3.21-2.61,0-2.71,1.5-2.67,3.41a76.71,76.71,0,0,1,0,8.58C675.81,626.87,677.5,627.83,680.89,627Zm-144.23,2.3c0-3.66,0-7.32,0-11,0-1.24-.17-2.7,1.72-2.81a2.6,2.6,0,0,1,2.94,1.9,23.14,23.14,0,0,1,.82,5.14c.1,5.41,0,10.82.06,16.23,0,1.71-.86,4.05,2.34,4.15s2.61-2.06,2.61-3.92c0-5.56.08-11.13,0-16.7-.15-8.9-2.61-11.27-11.47-11.29-6.36,0-6.34,0-4.79,5.91a9.83,9.83,0,0,1,.09,2.37c0,5.1,0,10.19,0,15.28,0,1.81.57,3.92-2.34,4.32-1.07.14-1.24,1.31-1.15,2.31s.9,1.46,1.93,1.7c5.44,1.26,7.23-.07,7.24-5.5ZM652.3,580.25c-.38,3.1.57,7.1-.63,11s-4.19,4.37-7.56,4.23c-3.78-.16-2.33-3.19-2.54-5-.69-6.32-1.13-12.66-1.65-19-.14-1.74.1-3.59-2.61-3.56-3.23,0-2.44,2.28-2.35,4,.34,6.19.83,12.37,1.17,18.56.52,9.15.49,9.15,9.69,9,7.22-.14,10.09-2.63,11.26-9.64,1-6.33.32-12.7.57-19.05.07-1.95-.56-2.91-2.71-2.91s-2.71,1-2.66,2.94C652.36,573.68,652.3,576.54,652.3,580.25ZM619.86,586c0-3.5,0-7,0-10.5,0-1.38-.28-3.08,1.88-3.18a3.06,3.06,0,0,1,3.33,2.76,19.21,19.21,0,0,1,.32,3.79q0,8.6,0,17.19c0,1.84-.11,3.49,2.61,3.4,2.41-.08,2.37-1.55,2.36-3.21,0-6.68.07-13.37-.17-20-.2-5.45-3-8-8.47-8.27-2.06-.11-4.14-.06-6.2,0-1,0-2.36-.41-3,.89a2.42,2.42,0,0,0,1,3.28c1.46,1,1,2.55,1,3.93,0,5.09.05,10.19,0,15.28,0,1.81.53,4-2.38,4.32-1.25.14-1.3,1.21-1.25,2.19s.52,1.29,1.41,1.57c4.82,1.55,7.4-.24,7.41-5.26Zm68.52,40.64v12.41c0,1.78-.19,3.54,2.54,3.53s2.41-1.9,2.42-3.6c0-6.84,0-13.68,0-20.52,0-1.17-.44-2.74,1.46-3,1.63-.21,3.23-.14,4.18,1.53a9.7,9.7,0,0,1,.94,5.09q0,8.6,0,17.18c0,1.59-.21,3.2,2.25,3.3,2.62.1,2.72-1.44,2.71-3.36,0-5.41,0-10.82,0-16.23-.1-9.79-2.49-12-12.19-12-3.22,0-4.64.74-4.38,4.22C688.6,619,688.38,622.84,688.38,626.66ZM592.73,584h0c0-1.12,0-2.23,0-3.34-.09-10.45-4.46-14.19-14.7-12.73-1.51.22-2.35.61-2.34,2.26q.06,6,0,11.91c0,1.64.83,2.17,2.36,2.2,1.77,0,2.67-.61,2.62-2.47a39.81,39.81,0,0,1,0-5.24c.14-1.54-1-3.82,1.78-4.17s4.23,1.34,4.47,3.82c.31,3.15.28,6.34.28,9.51,0,8.95,0,8.95-8.82,9.82-.48.05-1,0-1.42.13-1.26.23-1.27,1.22-1.26,2.18s.54,1.29,1.41,1.58c8.13,2.71,14.95-1.74,15.52-10.23C592.83,587.45,592.73,585.69,592.73,584Zm51.78,46v-9.06c0-10,0-10.08-10-9.8-1.55,0-3.86-.87-4,2-.12,3.23,2.46,2.47,4.1,2.28,3.82-.44,4.46,1.35,4.39,4.69-.2,8.58,0,17.17-.09,25.75,0,2.09,0,3.8,2.88,3.77s2.73-1.92,2.72-3.89C644.49,640.43,644.51,635.18,644.51,629.93ZM591.09,625v-5.24c0-8.95,0-9-9.18-8.72-1.54,0-3.84-.88-4,2-.15,3.22,2.4,2.48,4.06,2.32,3.53-.35,4.32,1.26,4.15,4.42a104.19,104.19,0,0,0,0,12.37c.29,4.34,0,7.67-5.77,6.57-1.31-.25-2.56.11-2.58,1.93s1,2.23,2.4,2.24c4,0,7.93,0,11.9,0,1,0,2-.24,2.28-1.32.27-.91.36-2.36-.59-2.52-3.68-.59-2.6-3.32-2.68-5.47C591,630.74,591.09,627.88,591.09,625ZM671,625h.08c0-3.5,0-7,0-10.51,0-1.34.44-3.24-1.67-3.32-2.33-.08-4.9-.9-6.94.59-.94.68-.94,3,.3,3.26,4,.73,2.74,3.61,2.8,5.88.12,4.13.05,8.27,0,12.41,0,2.59.2,5.29-3.59,5.49-1.44.08-1.67,1.29-1.56,2.48.13,1.48,1.25,1.56,2.42,1.7,4.76.56,7.73-1.64,8.09-6.53C671.2,632.62,671,628.79,671,625Zm-97.22.1h0v-8.55c0-5.65-.69-6.23-6.26-5.48-.94.12-2,0-2.31,1.19s-.47,2.59.78,2.89c2.78.64,2.2,2.66,2.22,4.46,0,4.59,0,9.18,0,13.78,0,2.55.36,5.28-3.5,5.43-1.55.06-1.45,1.4-1.41,2.51s.88,1.43,1.91,1.63c4.8.92,8.21-1.53,8.47-6.45C573.93,632.68,573.76,628.87,573.76,625.07Zm36.38,4.87h-.07c0-3.17.13-6.36,0-9.52-.36-7.34-5-10.78-12.26-9.39-1.28.24-2,.64-2.07,2-.05,1.59.67,2.13,2.22,2.39,6.75,1.12,6.81,1.23,6.87,7.94q.08,8.34,0,16.68c0,2,.79,2.85,2.82,2.88,2.24,0,2.59-1.15,2.54-3C610.08,636.61,610.14,633.28,610.14,629.94Zm45.93-3.36c0-4.11,0-8.23,0-12.35,0-1.67,0-3.17-2.35-3.19-2.19,0-2.64,1.09-2.63,3q.06,12.82,0,25.65c0,1.87.43,3,2.63,3,2.4,0,2.35-1.54,2.35-3.19C656.06,635.13,656.07,630.86,656.07,626.58Zm-102.28.5c0,4.11,0,8.23,0,12.34,0,1.66-.07,3.16,2.33,3.18,2.2,0,2.64-1.1,2.64-3q-.06-12.81,0-25.64c0-1.89-.51-3-2.66-2.94-2.41,0-2.33,1.54-2.32,3.2C553.81,618.53,553.79,622.8,553.79,627.08Zm94.8-48.53c0-2.7,0-5.4,0-8.09,0-1.8-.75-2.54-2.56-2.55s-2.43.94-2.41,2.65c0,5.23,0,10.47,0,15.7,0,1.79.66,2.57,2.52,2.55s2.48-.94,2.45-2.65C648.56,583.62,648.59,581.08,648.59,578.55Zm-26.91,45.78c-2,0-3.56,0-5.14,0s-2.36.61-2.35,2.22.93,2.18,2.43,2.16a24,24,0,0,0,4.73-.07c2.25-.51,6.41,2,6.38-2.16S623.39,625.4,621.68,624.33Zm-24.76-50.62c.2,1-.77,2.46.71,2.86s1.66-1.1,2-2.1c.87-2.69,1.79-5.38,2.47-8.13.3-1.25,0-2.62-1.72-2.75a2.06,2.06,0,0,0-2.49,2.13C597.62,568.39,597.25,571.05,596.92,573.71Zm11.26-6.21c0-2.11.24-3.5-1.52-3.86-2-.42-2.4.9-2.6,2.42-.35,2.8-.7,5.61-1,8.41-.1.8-.14,1.64.83,1.91a1.18,1.18,0,0,0,1.47-.83C606.38,572.62,607.41,569.67,608.18,567.5Z"/><path class="cls-3" d="M218.15,381.11c-17.9,9.4-33.54,22-48.56,35.29-27.51,24.4-51.09,52-67.14,85.41C90.23,527.27,84.21,554,86.79,582.32c.22,2.38-.62,3.45-2.46,4.51-8.69,5-17.42,9.94-25.94,15.22-3.16,2-4.63,1.57-6.42-1.66a412.41,412.41,0,0,1-28.42-62.51A404.19,404.19,0,0,1,.3,386.41,398.63,398.63,0,0,1,49.38,208.6,420.47,420.47,0,0,1,80,160.79c2-2.72,3.09-2.88,5.74-.61,42.48,36.31,85,72.56,128.52,107.63a27.23,27.23,0,0,0-2.82,15.24c.39,4.9.54,9.82,1,14.72.24,2.82-.13,4.49-3.66,4.14s-6.35,1.62-8.25,4.69c-2.23,3.61-2.88,7.66-3.19,11.8-.59,7.83.9,15.51,2,23.19C201.35,356.72,204.59,371.42,218.15,381.11Zm-48-83.85c0-3.5,0-7,0-10.5,0-1.35-.34-3.1,1.89-3.1a2.8,2.8,0,0,1,3,2.52,26.55,26.55,0,0,1,.3,4.28c0,5.57,0,11.14,0,16.71,0,2-.07,3.74,2.88,3.66,2.7-.07,2.58-1.66,2.57-3.49,0-5.1,0-10.19,0-15.28-.09-10.61-2.38-12.87-12.92-12.86-5.77,0-5.72,0-3.53,5.12a8.67,8.67,0,0,1,.26,3.28c0,4.94,0,9.87,0,14.8,0,2,.71,4.33-2.59,4.56-1.28.08-1.07,1.35-1.09,2.26,0,1.32.92,1.38,1.91,1.56,6.1,1.11,7.33.15,7.33-5.88Zm-10.66,45.08.19,0c-.22-4.28-.29-8.57-.72-12.84s-3.1-6.84-7.56-7.07c-2.38-.13-4.77,0-7.15-.05-2.61-.07-3.51,2.13-2.18,3.25,3.23,2.71,1.68,5.81,1.49,8.69-.35,5.23-1.26,10.41-1.75,15.63-.14,1.53-1.83,3.94,1.74,4.22,3.11.23,3.16-1.82,3.4-3.94.79-6.94,1.62-13.88,2.44-20.83.13-1.06,0-2.38,1.54-2.52a2.88,2.88,0,0,1,2.68,1.67,7.5,7.5,0,0,1,.75,4.16q0,6.69,0,13.36c0,1.85.49,4-2.5,4.08-1.22.05-1.31,1.15-1.31,2.15,0,1.54,1.1,1.64,2.26,1.83,5.68.94,6.67.14,6.68-5.57ZM70,383.75c0-3.66,0-7.33,0-11,0-1.23-.23-2.7,1.7-2.79a2.63,2.63,0,0,1,3,1.86,22.62,22.62,0,0,1,.66,5.18c.08,5.57,0,11.15,0,16.72,0,2-.15,3.85,2.84,3.78s2.38-1.92,2.39-3.61c0-5.58.08-11.16,0-16.73-.17-9.16-2.33-11.3-11.33-11.23-2.17,0-4.83-1-6.42.71s1.35,3.11,1.52,4.88c.09,1,.05,1.91.05,2.87,0,4.46.08,8.92,0,13.38-.06,2.27,1.2,5.22-2.87,5.77-1.2.17-1.19,2.13-.56,2.87,1.82,2.15,4.43.72,6.68,1,1.93.24,2.41-1,2.38-2.69C69.92,391.08,70,387.42,70,383.75Zm2.73-85.81c-.15-3.78.34-8.07-.69-12.31s-3.53-6.26-7.73-6.4c-2.38-.08-4.76-.06-7.14,0-3.13.07-3.17,2.61-1.71,3.72,2.28,1.75,1.57,3.61,1.38,5.51-.64,6.48-1.41,12.94-2.15,19.4-.16,1.42-.68,3,1.72,2.93,1.6,0,3.28.21,3.5-2.11.15-1.58.38-3.15.55-4.73.66-5.83,1.3-11.67,2-17.5.14-1.2,0-2.75,1.84-2.74A3,3,0,0,1,67,286a7.09,7.09,0,0,1,.38,2.34c0,5.24,0,10.48.06,15.72,0,1.61-.3,2.75-2.28,2.83-1.49.06-1.62,1.26-1.51,2.45s1.09,1.29,2.05,1.45c5.91,1,7,.15,7-5.66Zm58.77,36h-.26c0,3.66.33,7.36-.09,11-.49,4.13-3.67,5.05-7.4,5.09-4.14.06-2.85-3-3-5.07-.61-6.5-1.07-13-1.5-19.51-.14-2.06-.71-3.25-3.11-3.1-2.58.16-2.12,1.87-2,3.4.52,7,1,14,1.64,20.93.67,7.62.72,7.61,8.51,7.46,8.17-.16,11.36-2.68,12.17-10.87.61-6.15.26-12.39.39-18.59,0-2-1.14-2.29-2.77-2.32-1.84,0-2.58.73-2.54,2.55C131.51,327.92,131.47,331,131.47,334Zm-30,46.41c1.69.58,1.82,1.61,2.2,2.45,1.92,4.19,3.94,8.33,5.72,12.58,1,2.42,3,2.53,4.7,1.86,2.23-.89.2-2.42-.19-3.52-.73-2.09-1.81-4.05-2.72-6.08-.44-1-1.4-2.05,0-2.9,7-4.16,3.93-11,4.56-16.85.15-1.38-.76-1.85-2.06-2-2.94-.38-3.29,1.16-3.4,3.64-.18,3.81,1.23,8-1.87,12.32-1.31-2.86-2.2-4.86-3.14-6.85-1.21-2.59-2.43-5.17-3.68-7.74-.8-1.67-2.31-1.38-3.73-1.27-1,.08-1.56.87-1,1.59,3.73,4.85,2.33,9.29-.75,13.77-.46.68-.22,1.86-.23,2.81q0,4.77,0,9.54c0,1.87-.45,3.93,2.69,3.79,2.85-.12,2.23-2.06,2.33-3.71C101.12,389.42,100.32,385,101.44,380.38ZM98.8,341.61h-.21a108.42,108.42,0,0,0-.07-11c-.61-5.94-3.15-8.08-9-8.27-1.91-.06-3.82,0-5.73,0-1.14,0-2.32,0-2.68,1.38-.24,1-.24,2.19.71,2.56,2.65,1,1.72,3.1,1.54,4.84-.67,6.32-1.49,12.63-2.19,18.95-.17,1.53-1.48,3.58,1.54,4,2.86.4,3.44-1.15,3.66-3.59.57-6.49,1.29-13,2.12-19.44.19-1.53-.4-4.11,2-4.13s3.24,2.34,3.29,4.48c.12,5.25,0,10.51.08,15.76,0,1.59-.24,2.81-2.23,2.88-1.55.06-1.59,1.26-1.56,2.43,0,1.61,1.24,1.51,2.36,1.65,5.75.73,6.34.24,6.35-5.36Zm-2.67-44.55c0-3.5,0-7,0-10.51,0-1.23-.22-2.74,1.57-3a3,3,0,0,1,3.54,2.46,19,19,0,0,1,.39,4.26c0,5.89.08,11.78,0,17.67,0,2,.58,2.87,2.71,2.82s2.32-1.12,2.31-2.75c0-4.94,0-9.88,0-14.81,0-12.69-1.73-14.35-14.37-14h-1c-3.34,0-3.58,1.94-1.76,3.86,1.33,1.4,1.33,2.75,1.34,4.29,0,5.1,0,10.19,0,15.29,0,1.78.65,3.93-2.37,4.28-1.86.21-1.7,2.33-1,3,1.91,1.8,4.5.67,6.79.77s1.82-1.77,1.84-3.11C96.15,304.06,96.12,300.56,96.13,297.06Zm53.18,83.78c-2.85-3.72-4-7.69-5.4-11.42s-3.31-4.48-6.79-3c.28.78.47,1.37.71,1.94,2.52,6,5,12,7.59,18,2.73,6.36,2.76,6.36-4.15,6.81-1.44.1-3-.15-3,2-.07,2.45,1.59,2.31,3.22,2.3,3.34,0,6.69-.16,10,0,3.47.21,4.14-.69,2.63-4-1.89-4.11-6-8.52.57-12.55,1-.58,1.07-2.91,1.19-4.46.19-2.53,0-5.08.09-7.62.11-2.13-.45-3.24-2.86-3.23-2.61,0-2.51,1.57-2.63,3.45C150.21,372.82,151.39,376.66,149.31,380.84Zm-16.16-1.15v-4.77c0-9.29,0-9.32-9.36-9-1.41.05-3.53-.78-3.71,1.73-.21,2.92,2.16,2.33,3.7,2.18,3.47-.35,4.4,1.16,4.21,4.39a113,113,0,0,0,0,11.93c.2,4.26.36,8.17-5.87,7-1.53-.27-2.31.63-2.26,2.27,0,1.43.74,2,2.07,2h12.42c1.07,0,1.87-.35,2.07-1.5.17-1,.15-2.36-.81-2.49-3.22-.46-2.39-2.79-2.43-4.71C133.11,385.74,133.16,382.72,133.15,379.69Zm-83.2-81v-10c0-9.65,0-9.69-9.87-9.46-1.51,0-3.9-1-4,1.86-.14,3.16,2.44,2.47,4.12,2.33,3.35-.3,4.37,1,4.3,4.29-.21,8.91,0,17.82-.11,26.73,0,2.29.8,3,3.06,3s2.56-1.17,2.54-3C49.91,309.22,49.94,304,50,298.72Zm91.81-4h0c0,.48,0,1,0,1.43-.36,4.86,1.88,11.38-7,10.78-.92-.06-1.19.91-1.22,1.75a1.85,1.85,0,0,0,1.47,2.07,9,9,0,0,0,11.59-7.45,66.78,66.78,0,0,0,.12-15.22c-.71-6.65-3.85-9.27-10.41-8.91-1.45.08-3-.11-3,2.07s1.4,2.32,2.92,2.2c4.07-.31,5.3,2.1,5.42,5.56C141.82,290.93,141.76,292.83,141.76,294.74Zm-19.13,4c0,5.25,0,10.51,0,15.76,0,1.86.33,3,2.59,3s3-.81,3-3.06c-.08-10.67-.06-21.34,0-32,0-2.06-.35-3.26-2.84-3.26s-2.78,1.35-2.76,3.33C122.67,287.89,122.63,293.3,122.63,298.72Zm-46.5,39.46h.05c0-4.14,0-8.28,0-12.41,0-1.55.36-3.39-2.14-3.39H62.09c-1.42,0-2,.79-2,2.09s.46,2.17,1.91,2.19a38,38,0,0,0,4.77,0c3.29-.4,4.45.78,4.32,4.19-.26,6.52-.07,13.06-.09,19.58,0,1.94-.35,3.86,2.73,3.75s2.4-2.25,2.4-4.05Q76.13,344.15,76.13,338.18Zm7.32-43.29c0-4.29,0-8.59,0-12.89,0-1.57-.12-2.76-2.22-2.81s-2.8.78-2.78,2.8c.06,8.59,0,17.19,0,25.78,0,1.79.21,3,2.52,3s2.5-1.24,2.48-3C83.42,303.49,83.45,299.19,83.45,294.89Zm73.69,0c0-4.3-.06-8.59,0-12.88,0-2-.57-2.87-2.72-2.82s-2.26,1.2-2.25,2.79q0,12.87,0,25.76c0,1.76.12,3,2.47,3s2.53-1.22,2.5-3C157.1,303.49,157.14,299.19,157.14,294.9Zm-29,37.54c0-2.39-.06-4.77,0-7.15.07-1.91-.44-3-2.63-3-2,0-2.88.62-2.84,2.74.1,5.09.07,10.17,0,15.26,0,1.89.42,2.93,2.61,3,2.49.05,2.92-1.19,2.85-3.25C128.11,337.52,128.18,335,128.18,332.44Zm-42.78,41c0,2.21,0,4.42,0,6.63s1.45,2.08,2.93,2.08,2.57-.19,2.57-2c0-4.1,0-8.21,0-12.31,0-2.15-1.49-2-2.93-2.09-1.67,0-2.72.5-2.61,2.44C85.47,369.92,85.39,371.66,85.4,373.4Zm24.39-42.75c0-1.75-.07-3.5,0-5.24.11-2.23-.79-3.14-3.08-3.08s-2.33,1.57-2.32,3.23c0,3.34,0,6.68,0,10,0,1.8.21,3,2.51,3.05s3-1.11,2.9-3.2C109.72,333.83,109.79,332.24,109.79,330.65ZM65.24,344.1c0-2.23-.06-4.46,0-6.68.06-1.88-.35-3-2.6-2.95-1.94,0-2.43,1-2.41,2.67,0,4.77.06,9.55,0,14.32,0,1.89.87,2.44,2.63,2.46,1.95,0,2.42-1,2.37-2.67C65.18,348.87,65.23,346.48,65.24,344.1Z"/><path class="cls-4" d="M321.13,589.81c3.21,14.54,10.59,27.25,17.93,39.89C357,660.52,378,689.05,403.49,714.08c15.42,15.13,32.13,28.56,52.52,36.62A81.45,81.45,0,0,0,471.14,755c2.05.38,3,1.15,3.33,3.25,2.07,11.58,4.19,23.16,6.51,34.7.78,3.9-2,3.68-4.15,4.11a381.82,381.82,0,0,1-73.52,7.11c-96.36.28-181.74-30.5-256.53-90.89-27.89-22.52-51.82-48.88-72.73-78-2.58-3.6-2-4.89,1.81-6.81Q150.27,591,224.54,553.32c.71-.36,1.46-.62,2.19-.92,2.9,9.05,9.18,14.13,18.49,15.32,3,.39,2.34,1.62,1.51,3.43-1.67,3.65-.67,6.74,2,9.53a20.06,20.06,0,0,0,9,5.15c13.58,4,27.51,5.53,41.65,5.94C306.79,592,313.85,589.86,321.13,589.81Zm-72.46,54.74c-.2-3.63.4-8.1-.71-12.49-.82-3.23-2.5-5.59-6-5.88-3-.25-6-.13-9.05-.16-2.44,0-2.94,2.4-1.8,3,3.71,2,1.9,4.84,1.66,7.36-.52,5.53-1.42,11-1.89,16.56-.13,1.62-1.8,4.34,2,4.63,3.21.24,3.09-2,3.32-4,.72-6.47,1.35-13,2.15-19.42.18-1.5-.69-4.09,2.09-3.92,2.3.14,2.9,2.26,2.93,4.27.08,4.93.06,9.86.08,14.78,0,1.89.37,3.86-2.48,4.24-1.39.19-1.26,1.64-1.11,2.75s1.21,1.19,2.17,1.32c5.91.82,6.66.22,6.67-5.55Zm62.31-.47c0-3.67-.05-7.33,0-11,0-1.15-.52-2.77,1.39-3a3,3,0,0,1,3.53,2.47,22.56,22.56,0,0,1,.59,4.7c.07,5.57,0,11.14,0,16.71,0,1.65-.53,3.57,2.34,3.67,3.19.11,2.64-2,2.65-3.83,0-5.25.06-10.5,0-15.75-.12-10.12-2-12-12-12-5.74,0-5.73,0-4.26,5.37a7.51,7.51,0,0,1,.09,1.9c0,5.57,0,11.14,0,16.72,0,1.63.12,3.21-2.19,3.44-1.46.15-1.57,1.36-1.48,2.54.12,1.57,1.29,1.48,2.42,1.61,6.36.75,6.85.34,6.85-5.87C311,649.17,311,646.62,311,644.08Zm-85.08.44c-.18-3.66.39-8-.56-12.21-.67-3-2.06-5.57-5.33-6a67.91,67.91,0,0,0-10-.28c-2.51.07-2.6,2.59-1.38,3.22,3.11,1.63,1.93,4,1.71,6.11-.63,6.16-1.49,12.3-2.19,18.45-.19,1.58-1.18,3.57,1.88,3.76,2.66.18,3.15-1.2,3.36-3.4q.91-9.72,2.13-19.42c.21-1.68-.51-4.53,2.09-4.53s3.27,2.68,3.32,5c.09,4.92,0,9.85.05,14.78,0,1.69,0,3.21-2.29,3.37-1.54.1-1.52,1.31-1.49,2.47,0,1.56,1.11,1.57,2.28,1.72,5.85.76,6.41.28,6.41-5.76ZM173.19,682h.12c0-3.18-.1-6.36,0-9.53.11-2.33-.45-3.52-3.12-3.39-4,.19-7.94.17-11.91,0-2.54-.1-3.3.76-3.06,3.3.77,8.38,1.33,16.77,2,25.16.1,1.21,0,2.51,1.57,3.11,6.06,2.28,13.61-2.14,14.31-8.66A95.26,95.26,0,0,0,173.19,682Zm-4.44-37.74V640c0-12.76-1.55-14.28-14.26-13.94-1.21,0-2.78-.55-3.5.76s-.09,2.59,1.3,3.58c1.15.81.68,2.35.69,3.58,0,4.93.06,9.85,0,14.78,0,2.07.78,4.43-2.66,5.09-1.67.32-1.49,2.9-.25,3.26a14.58,14.58,0,0,0,7,.19c2-.44,1.1-2.7,1.12-4.16.08-6.67,0-13.34.05-20,0-1.2-.32-2.74,1.47-3a3,3,0,0,1,3.58,2.39,20.65,20.65,0,0,1,.45,4.72c.05,5.88,0,11.76,0,17.64,0,1.6.2,2.72,2.26,2.77s2.79-.84,2.75-2.82C168.69,651.27,168.75,647.77,168.75,644.27ZM238.3,700.7a15.05,15.05,0,0,0-.36-2.18c-1.74-4.89-6.94-9.77.25-14.62.77-.52.82-2.37.88-3.61.14-2.7,0-5.42.09-8.12,0-1.77-.14-3-2.48-3.08s-3.05.91-3,3.11c.11,3,0,6,0,9.07,0,.75,0,1.72-.9,2-1.28.39-1.59-.7-1.95-1.54-1.24-2.93-2.63-5.81-3.61-8.83-1.17-3.58-3.24-4.61-6.95-3.17,2.71,6.47,5.37,12.76,8,19.06.91,2.19,2.9,4.84,2.31,6.56-1,2.8-4.39.95-6.72,1.28-1.51.22-2.38.62-2.3,2.3.07,1.52,1,1.77,2.25,1.77ZM204.55,630c1-4.91-1.67-3.88-3.29-3.93-3.25-.1-7.14.89-6-4.74a1.45,1.45,0,0,0-1.53-1.89c-1.07,0-2.73-.41-2.88.89a25.7,25.7,0,0,0,.09,8.49c.48,2,3,1.1,4.64,1,3.12-.16,3.74.79,3,3.86-1.7,6.92-3,13.94-4.41,20.92-.23,1.12-1.23,2.67.93,2.9,1.63.16,3.5.67,4.05-2C200.94,646.51,202.92,637.54,204.55,630Zm100.82,53.18v-5.71c0-8.34,0-8.42-8.14-8.21-1.56,0-4.28-1.4-4.47,1.76s2.63,2.11,4.18,2.06c2.71-.07,3.62.88,3.51,3.58-.19,4.59-.2,9.2,0,13.8.16,4,.21,7.46-5.47,6.33-1.41-.28-2.44.34-2.39,2.09,0,1.52.92,1.83,2.16,1.83,4,0,7.93,0,11.9,0,1,0,2-.1,2.08-1.38.08-.93.24-2.19-1-2.36-3.24-.45-2.3-2.87-2.36-4.75C305.31,689.18,305.37,686.17,305.37,683.15ZM287.78,641.7h.1c0-2.38.19-4.77,0-7.13-.61-6.24-3.41-8.68-9.69-8.53-1.37,0-3.45-.87-3.62,1.75s1.77,2.21,3.28,2.15c3.27-.11,4.64,1.71,4.76,4.64.17,4,.18,7.93.22,11.89s-.72,7.42-6,6.87c-1.59-.16-2.26.71-2.19,2.32s.88,1.73,2.13,1.92c5.78.9,10.15-2,11-7.81A57.15,57.15,0,0,0,287.78,641.7Zm-100.48.1c-.13-2.38-.16-4.77-.39-7.13-.66-6.53-3.41-8.9-10-8.65-1.29.05-3.09-.57-3.29,1.66-.23,2.51,1.6,2.38,3.18,2.27,3.93-.28,5,2.17,5.08,5.35.13,3.81.06,7.63.08,11.44s-.88,7-5.84,6.59c-1.54-.14-2.37.62-2.37,2.24,0,1.79,1.11,1.9,2.52,2,6.41.57,9.94-2.22,10.63-8.66C187.15,646.58,187.17,644.19,187.3,641.8Zm28.22,40.78h.38c0-3.65,0-7.31,0-11,0-1.45-.36-2.65-2.08-2.41-2.23.31-4.82-1.16-6.63,1-.54.66-.42,2.36.5,2.49,4.05.56,2.76,3.57,2.82,5.83.12,4.29,0,8.59,0,12.88,0,2.47.08,5-3.3,5.27-1.55.14-1.66,1.2-1.61,2.38,0,.91.49,1.3,1.39,1.58,4,1.19,8.07-1.09,8.42-5.24S215.52,686.87,215.52,682.58Zm71.45-.05h.18V672c0-1.48.05-2.91-2.1-2.88-4,.05-7.95,0-11.92,0-1.31,0-2.08.47-2.07,1.94s.71,2,2,2c2.06,0,4.13,0,6.2,0,1.27,0,2.8,0,2.81,1.75q.08,9.54-.08,19.07a2.88,2.88,0,0,1-2.32,2.71c-1.51.43-1.28,1.65-1.17,2.71.18,1.69,1.56,1.28,2.58,1.24,3.61-.16,5.61-2.24,5.8-5.71C287.13,690.8,287,686.66,287,682.53Zm-34.07.15h.24c0-3.65,0-7.3,0-10.95,0-1.35-.21-2.73-2-2.52-2.24.27-4.81-1.11-6.66,1-.57.63-.42,2.4.42,2.52,4.36.62,2.79,3.89,2.89,6.24.17,4.28,0,8.57,0,12.86,0,2.37-.16,4.58-3.2,4.88-1.47.15-1.75,1-1.73,2.29,0,1.59,1.08,1.59,2.25,1.73,4.62.51,7.32-1.41,7.69-6.14C253.14,690.63,252.9,686.65,252.9,682.68ZM192,680a149.7,149.7,0,0,0,3.08,18.58c.54,2.62,2.33,2.25,4,2.09,2.61-.25,1.15-2.14,1-3.26-.85-6.12-2.89-12-3-18.28,0-2.88-.06-6,4.19-6,1.54,0,1.63-1.2,1.57-2.39s-.94-1.52-2-1.52c-3.34,0-6.67,0-10,0-1.25,0-2.14.34-2.15,1.86,0,1.34.48,2.19,1.9,2.1,3-.2,3,1.19,2,3.44A13.78,13.78,0,0,0,192,680Zm76.93-35.23c0-5.25,0-10.51,0-15.77,0-1.79-.19-3-2.51-3s-2.66,1-2.66,2.93q.07,16,0,32c0,2,.3,3.34,2.83,3.28s2.32-1.57,2.32-3.2C268.93,655.58,268.94,650.17,268.94,644.75Zm29.37-2.65c0-4.44-.06-8.87,0-13.31,0-2-.68-2.79-2.74-2.8s-2.67.94-2.65,2.88c.06,8.55,0,17.11,0,25.66,0,1.77.16,3,2.48,3.06s2.95-1,2.9-3.14C298.24,650.33,298.31,646.21,298.31,642.1ZM276.41,694c0-3.33,0-6.66,0-10,0-1.83.11-3.45-2.58-3.47-2.46,0-2.88,1.15-2.86,3.22q.11,10.23,0,20.46c0,2.07.38,3.21,2.84,3.21,2.7,0,2.62-1.59,2.6-3.44C276.38,700.63,276.41,697.3,276.41,694Zm-91.54-9c0-4.27,0-8.54,0-12.82,0-1.75-.14-3-2.47-3s-2.51,1.19-2.51,3q.06,12.81,0,25.63c0,1.76.13,3,2.46,3s2.54-1.17,2.51-3C184.84,693.5,184.87,689.22,184.87,685Zm75.38-.26c0,4.43,0,8.87,0,13.3,0,1.59.16,2.71,2.24,2.74s2.77-.69,2.75-2.74q-.12-13.07,0-26.11c0-2-.69-2.78-2.75-2.75s-2.26,1.16-2.24,2.74C260.27,676.15,260.25,680.42,260.25,684.69ZM146.4,634.49c0-1.9-.09-3.81,0-5.71s-.68-2.82-2.75-2.81-2.88.64-2.82,2.73q.15,5.47,0,10.95c0,2.23,1.13,2.59,3,2.59s2.64-.66,2.57-2.51S146.39,636.24,146.4,634.49Z"/><path class="cls-5" d="M553.26,296.45c17.48-39.62,31-80.45,36.31-123.59,2.81-22.73,2.75-45.43-5.25-67.42a67.54,67.54,0,0,0-14.79-24.28c-1.92-2-2-3.38-.76-5.73,4.71-8.67,9.38-17.37,13.64-26.26,1.7-3.53,3.19-3.8,6.44-2A411.66,411.66,0,0,1,664,99.36q77.88,68.71,113,166.47a395.42,395.42,0,0,1,21.71,97c.82,8.72,1.59,17.42,1.79,26.18.07,2.95-.53,3.76-3.7,3.46q-50.34-4.86-100.5-11.27c-22.39-2.88-44.77-5.89-67-10.08a20.65,20.65,0,0,0-2.37-.18c-2.58-6.28-7.86-10.25-12.59-14.69-2.73-2.57-7.14-4.53-2.08-9.15,1.58-1.44,1-4.26.46-6.44a24.68,24.68,0,0,0-3.21-7.91,82.73,82.73,0,0,0-32.71-29.08C569.28,300,561.19,298.56,553.26,296.45Zm182.58-51.4.2,0c-.23-4.28-.34-8.58-.71-12.85-.39-4.46-3-6.89-7.44-7.24-2.37-.19-4.77,0-7.16-.09-2.94-.06-3.69,2.33-2.19,3.58,2.48,2.07,1.71,4.25,1.5,6.44-.57,6-1.35,12-2.07,18-.2,1.67-1.16,3.59,1.8,3.83,2.56.2,3.17-1.16,3.4-3.41.74-7.12,1.67-14.21,2.54-21.31.13-1.05-.12-2.42,1.44-2.59a2.94,2.94,0,0,1,2.73,1.62,7.15,7.15,0,0,1,.8,4.15q0,6.69,0,13.37c0,1.86.47,3.92-2.51,4.1-1.52.1-1.36,1.53-1.28,2.63.1,1.28,1.12,1.28,2.08,1.44,5.81,1,6.87.11,6.87-5.93Zm-36.23-5.59c1.76.53,1.77,1.82,2.21,2.74,2,4.15,4,8.33,5.8,12.55,1,2.4,3.11,2.44,4.77,1.71,2.18-1,0-2.44-.33-3.54a52.42,52.42,0,0,0-2.78-6.06c-.5-1-1.19-2.1.13-2.91,6.91-4.23,3.82-11.07,4.42-16.92.2-2-1.36-2.19-2.93-2.18s-2.32.64-2.29,2.28c.06,2.86,0,5.73,0,8.59,0,1.53.42,3.65-1.5,4.05-1.76.37-1.91-1.79-2.49-3-1.63-3.28-3.15-6.6-4.61-10a3.17,3.17,0,0,0-4.73-1.68c-1.81,1-.06,2.63.49,3.63,1.79,3.35,3.38,6.35-.61,9.42-.86.65-.89,2.65-.94,4-.13,3.66,0,7.32-.07,11,0,1.83-.13,3.52,2.56,3.5s2.38-1.87,2.45-3.61C699.34,248.63,698.66,244.06,699.61,239.46ZM645.68,284v3.81c0,12.9,0,12.84,12.86,12.29,2.38-.1,3.43-.66,3.38-3.23-.14-7,.07-14-.12-21-.18-6.75-1.94-7.49-12.24-7.52-6.29,0-3.39,4.4-3.78,7C645.36,278.19,645.68,281.1,645.68,284Zm.83-47.45h-.08c0,3.34.1,6.68,0,10-.06,1.63-.78,3.55-2.56,3.54-2.12,0-1.17-2.21-1.32-3.42q-1.08-9-1.87-18c-.2-2.32-.59-4.12-3.54-3.77-3.33.38-1.87,2.82-1.75,4.39q.75,9.74,1.92,19.43c.26,2.1.52,3.77-2.12,4.29-1.35.26-1.74,1.06-1.3,2.46.54,1.68,1.58,1.75,3,1.29,3.31-1.11,6.67-2.09,9.91-3.36a7,7,0,0,0,4.55-5.7c1.07-6.8.38-13.65.5-20.47,0-1.89-1.14-2.34-2.81-2.36-1.88,0-2.51.84-2.47,2.61C646.56,230.47,646.51,233.49,646.51,236.51Zm36.58-11.66a31,31,0,0,0-3.34,0c-1.41.15-3.39-.74-3.7,1.77-.29,2.3,1.11,2.63,2.92,2.61,1.06,0,1.83.25,1.32,1.67-2.77,7.74.81,15,1.68,22.49.3,2.61,1.54,3.78,4.09,3.22,2.89-.65,1.37-2.79,1.11-4.24-1-5.94-2.75-11.78-2.73-17.87,0-2-.3-4.43,2.35-5.14,1.64-.45,3.78,0,3.36-2.74s-2.67-1.54-4.2-1.77A19.46,19.46,0,0,0,683.09,224.85Zm-59.74,18c0,3.49,0,7,0,10.48,0,1.89,0,3.47,2.63,3.44,2.81,0,2.38-1.92,2.38-3.62,0-6.51,0-13,0-19.53,0-1.7-.9-3.86,2-4.62,1.24-.33,1-1.86.75-2.93s-1.36-1.15-2.3-1.16c-4,0-7.94,0-11.91,0-1.59,0-2.35.7-2.33,2.27a1.91,1.91,0,0,0,2.5,2.07c6.68-1.35,6.73,2.75,6.33,7.43C623.2,238.67,623.35,240.75,623.35,242.81Zm82.41,41.73v-6.18c0-9.9,0-10-9.86-9.78-2,.05-6.11-2.07-6,1.91.09,3.78,4.1,1.78,6.18,1.75,3.68-.06,5,.92,4.83,4.78-.32,6.65-.07,13.31-.11,20,0,1.82.32,3,2.57,3s2.44-1.39,2.42-3.11C705.74,292.78,705.76,288.66,705.76,284.54Zm-32.32-.16c0-4.28,0-8.56,0-12.84,0-1.74-.15-3.06-2.46-3.11s-2.53,1.2-2.52,3q.06,12.84,0,25.69c0,1.53,0,2.82,2.16,2.87s2.86-.72,2.82-2.76C673.39,293,673.44,288.67,673.44,284.38Zm-15.7-43.73c0,4.12,0,8.24,0,12.36,0,1.86,0,3.46,2.64,3.42,2.42-.05,2.33-1.54,2.33-3.18q0-12.6,0-25.2c0-1.67.08-3.14-2.33-3.19-2.62,0-2.66,1.56-2.65,3.43C657.76,232.41,657.73,236.53,657.74,240.65Zm31.86,49.29c0,2.55.06,5.09,0,7.64-.05,1.95,1,2.41,2.68,2.4s2.75-.38,2.73-2.36c0-4.93-.07-9.87,0-14.8,0-2.16-1-2.69-2.94-2.67s-2.52.86-2.47,2.63C689.65,285.16,689.6,287.55,689.6,289.94Zm-4.93-13.42c0-1.74,0-3.48,0-5.22s0-3.16-2.34-3.13c-2.09,0-3.27.57-3.18,3,.13,3.47.11,6.95,0,10.42-.07,2.15.57,3.19,2.93,3.15,2.19,0,2.68-1.09,2.6-3S684.67,278.25,684.67,276.52Z"/><path class="cls-6" d="M218.15,381.11c-13.56-9.69-16.8-24.39-18.89-39.52-1.07-7.68-2.56-15.36-2-23.19.31-4.14,1-8.19,3.19-11.8,1.9-3.07,4.6-5,8.25-4.69s3.9-1.32,3.66-4.14c-.42-4.9-.57-9.82-1-14.72a27.23,27.23,0,0,1,2.82-15.24c7.73-8.36,11.49-9.13,21.63-4a4.48,4.48,0,0,0,5.62-.67c.36-.32.72-.64,1.06-1,10.54-9.87,10.56-9.92,23.68-3.17,3.47,1.79,6.33,1,8.49-1.79,6-7.6,10.57-9.14,21.65-2.88,2.88,1.62,5.15,2.31,8-.44,9.91-9.51,12.11-9.51,23.51-1.27,2.14,3.29,4.85,6.29,5.12,10.52q1.41,22.5,2.91,45c.42,6.3,1,12.59,1.51,18.89.2,4.43.37,8.87.59,13.31,1,20.79-8.44,35.64-26.28,45.45-3,1.62-4,3.17-3.73,6.54,1.88,20.24,3.55,40.5,5.3,60.75-10.43-.52-20.58-3.17-30.93-4.11-13.64-1.23-27-7.08-41-2.52-1.64-17.66-3.33-35.32-4.88-53-.2-2.29-.73-3.78-3.09-4.63C228,386.84,223.09,384,218.15,381.11Z"/><path class="cls-7" d="M542.55,519.84c3.62,15.21.71,29.92-3.5,44.51-1.62,5.62-2.55,11.46-5.32,16.73-2.43,4.62-5.52,8.54-10.49,10.58-3.72,1.53-7.63,1.82-10.8-.92-2.48-2.14-2.87-.76-3.79,1.21-2.07,4.45-4.47,8.77-6.5,13.24a31.38,31.38,0,0,1-8.72,11.71c-3.94,1.56-7.62,4.06-12.25,3-4.28-1-7.75-3.21-9.59-7.17-2-4.25-4.77-5.1-8.86-3.43a26.53,26.53,0,0,1-5,1.44c-7.12,1.35-10.61-.44-13.87-7-3.81-7.65-4.75-8.07-12.95-5.76-7.41,2.08-11.81.38-16.12-7.22-2.6-4.59-5.07-6.85-10.89-5-9.84,3.06-16.57-1.71-18.39-12-.24-1.41-.55-2.8-.82-4.2.54-2.63.54-5.36,1.78-7.85,6.34-12.81,12.73-25.6,19-38.46,3.52-7.28,7.72-14.24,10.3-22,1.54-1.05,2.08-2.79,2.78-4.35,9.39-21,25.81-30.52,48.53-29.58,2.5.1,3.68-.68,4.68-2.86,7.7-16.89,15.51-33.73,23.29-50.59,9.14,6.91,16.84,15.44,25.51,22.89,10.22,8.78,18.72,19.55,30.59,26.42q-8.39,18.06-16.8,36.13a3.37,3.37,0,0,0,.25,3.95C538.45,508.17,540.37,514.07,542.55,519.84Z"/><path class="cls-8" d="M415.71,501.24c-2.59,7.72-6.79,14.68-10.31,22-6.23,12.86-12.62,25.65-19,38.46-1.24,2.49-1.24,5.22-1.78,7.85-9-1.07-18-2.1-26.91-3.23-1.41-.18-2.43,0-3.3,1.18-8,11.25-19.16,17.78-32.2,21.5-.42.12-.75.56-1.12.85-7.28.05-14.34,2.18-21.71,2-14.14-.41-28.07-1.93-41.65-5.94a20.06,20.06,0,0,1-9-5.15c-2.71-2.79-3.71-5.88-2-9.53.83-1.81,1.51-3-1.51-3.43-9.31-1.19-15.59-6.27-18.49-15.32.57-4.65,1.65-9.06,5.39-12.36,2.18-1.93,1.89-4.22.52-6.47-1.16-1.89-2.53-3.66-3.69-5.56-3.7-6-3.21-10.32,1.68-15.47,6.63-7,6.77-7.42,1.34-15.31-3-4.35-2.89-8.57-.44-13a26.57,26.57,0,0,1,2.14-3.16c5.28-7,5.29-7,.8-14.54-3.45-5.81-2.54-11.07,2.82-16.23,1.36-1.32,2.73-2.62,4.09-3.93,14-4.56,27.39,1.29,41,2.52,10.35.94,20.5,3.59,30.93,4.11,3.75,1.45,7.77,1.44,11.67,2,22.19,3,36.7,15.48,42.35,36.87.76,2.87,2.09,3.8,4.82,4.11C386.7,497.65,401.2,499.47,415.71,501.24Z"/><path class="cls-1" d="M551.08,463.17c-11.87-6.87-20.37-17.64-30.59-26.42-8.67-7.45-16.37-16-25.52-22.89a13.74,13.74,0,0,0-3.54-3.79c-16.57-13.81-22.19-33.51-15.06-54,1.24-3.57.37-5.4-2.22-7.64-11.61-10.09-23.07-20.36-34.58-30.56,16.47-7.38,32.82-15,49.45-22,7.61-3.19,12.75-8,15.13-15.8,7,6,14,11.85,20.83,18,2.3,2,4.35,2.54,7.27,1.49,6.76-2.44,13.86-3,21-3.08,7.93,2.11,16,3.52,23.51,7.25a82.73,82.73,0,0,1,32.71,29.08,24.68,24.68,0,0,1,3.21,7.91c.53,2.18,1.12,5-.46,6.44-5.06,4.62-.65,6.58,2.08,9.15,4.73,4.44,10,8.41,12.59,14.69.45,3.58,1.52,7.07.55,10.81-1.39,5.34-4.69,8.94-9.91,9.8s-6.72,3.46-6.35,8.16a38.36,38.36,0,0,1-.07,5.25c-.33,5.81-2.53,8.57-8.2,10.25a42.93,42.93,0,0,1-5.09,1.25c-4.83.77-6.59,3.87-6.68,8.4-.22,10.59-2.07,13.09-12.61,15.69-4.31,1.06-6.55,2.85-6.55,7.67,0,11.37-4.68,15.62-16.16,15.32C554.25,463.53,552.67,463.3,551.08,463.17Z"/><path class="cls-9" d="M504.15,280.08c-2.38,7.82-7.52,12.61-15.13,15.8-16.63,7-33,14.64-49.44,22-4.39,1.82-8.84,3.5-13.16,5.47-19.87,9.06-38.93,6.12-54.85-8.82-2-1.87-3.35-2.07-5.72-.91-9.4,4.57-18.91,8.92-28.39,13.35-.51-6.3-1.09-12.59-1.51-18.89q-1.53-22.5-2.91-45c-.27-4.23-3-7.23-5.12-10.52l.42-.22c4.6-2.36,10.57-3.66,13.43-7.37,2.73-3.53,2.23-9.56,3.16-14.49,8.33-22.61,26.13-35.35,47-44.74a20.47,20.47,0,0,1,14.91-1.2c3.11,1,5.87,2.67,6.72,6.15.62,2.51,1.75,2.93,4.07,1.83,4.74-2.26,9.64-4.17,14.39-6.41s9.77-3.79,15.16-3.51c1.21.36,2.42.69,3.63,1.06,7.8,2.37,11.69,8.54,9.85,16.49-.86,3.71.26,5.75,3.46,7.23a76.17,76.17,0,0,1,8.08,4.05c3.94,2.4,5.49,6,4.5,10.59-.34,1.55-.63,3.11-1,4.66-1.12,4.75.36,8.29,5.09,9.82,10.72,3.46,10.83,10.28,9.45,18-.87,4.8.07,7.74,4.81,9.16C503.44,266.17,505.28,272.3,504.15,280.08Z"/><path class="cls-10" d="M438,86.09q0,3.1,0,6.21c0,6.45-.42,6.83-6.65,6.13-1.1-.12-2.33,0-2.54-1.52-.15-1.17,0-2.44,1.34-2.69,2.71-.5,2.42-2.45,2.41-4.37,0-4.61,0-9.23,0-13.85,0-2.17-.33-4.68-2.82-4.83-3-.17-1.92,2.72-2.13,4.37-.77,6.31-1.41,12.63-2.05,19-.26,2.51-1,4.32-4.07,3.92-3.65-.47-1.47-3-1.37-4.39.47-6,1.35-12,1.95-18,.22-2.11,1.85-4.45-1.56-6-1.23-.58-.81-3.07,1.63-3.1a94.8,94.8,0,0,1,9.54.19c3.05.27,4.65,2.39,5.45,5.25C438.34,76.86,437.84,81.49,438,86.09Z"/><path class="cls-11" d="M343.48,85.55q0,3.83,0,7.63c0,5.28-1.16,6.17-6.54,5.22-1-.17-1.94-.24-2.05-1.48s-.3-2.54,1.16-2.73c3.16-.41,2.54-2.69,2.56-4.67,0-3.81,0-7.63,0-11.44a24.19,24.19,0,0,0-.51-4.23A3.06,3.06,0,0,0,335.25,71c-2.1,0-1.84,2-2,3.21-.87,6.93-1.56,13.87-2.29,20.81-.16,1.6,0,3.26-2.38,3.35-2.07.08-3.43-.28-3.08-2.84.83-6.13,1.64-12.26,2.29-18.41.25-2.44,1.73-5.09-1.65-7.09-1.37-.81-.88-3.1,1.49-3.15a54.54,54.54,0,0,1,10,.28c4.17.69,5.31,4.28,5.63,7.87s.07,7,.07,10.48Z"/><path class="cls-10" d="M416,82.06c0,2.5.09,4.25,0,6-.54,8.47-7.53,13-15.54,10.31A1.91,1.91,0,0,1,399,96.29c0-1,.12-1.92,1.31-2.19a11,11,0,0,1,1.41-.14c8.79-.95,8.8-.95,8.79-9.78,0-3,.05-6.05-.16-9.06-.17-2.5-1.56-4.39-4.24-4.14s-1.51,2.68-1.68,4.21c-.18,1.73-.05,3.49-.07,5.24,0,2-1,2.79-3,2.76s-2.43-1-2.4-2.72c.05-1.9-.34-3.9.09-5.7.64-2.66-2.46-6.9,2.37-7.82,8-1.54,12.48,1,14.05,6.86C416.21,76.8,415.86,79.81,416,82.06Z"/><path class="cls-10" d="M269,60.28c2.21-.18,3.1.61,2.84,2.19-.71,4.32,1.84,4.81,5.06,4.34,4.3-.63,5.5.71,4.36,5.11-1.94,7.52-3.33,15.19-5,22.8a20.65,20.65,0,0,1-.7,2.28c-.64,1.92-2.27,1.41-3.62,1.37-2.17-.06-1.43-1.58-1.19-2.76,1.34-6.69,2.44-13.45,4.13-20,1-3.75.49-5.35-3.71-4.9-1.39.15-3.64.79-3.84-1.55-.24-2.79-.82-5.71.48-8.41C268,60.31,268.92,60.29,269,60.28Z"/><path class="cls-11" d="M308.23,80.46c0,3.33,0,6.67,0,10,0,1.74-.23,3.55,2.19,4.08,1.4.31,1.47,1.52,1.18,2.67s-1.36,1.18-2.3,1.18c-3.81,0-7.62,0-11.42,0-1.21,0-2.2-.27-2.28-1.77-.11-1.76,1-2.33,2.4-2.1,5.18.88,5.62-2,5.36-6.06a118.37,118.37,0,0,1,0-13.32c.16-3.14-.56-4.82-4.12-4.42-1.38.15-3.48.68-3.56-1.85s2-1.92,3.45-2c9.11-.42,9.11-.4,9.11,8.82Z"/><path class="cls-10" d="M364.53,84.67a63.3,63.3,0,0,1,0-7.16c.56-4.71-.29-7.82-6.09-6.77-1.36.25-2.53-.28-2.45-2.06s1.43-1.82,2.72-1.83c3.82,0,7.64,0,11.46,0,1.1,0,2.35-.11,2.62,1.41.16,1,.12,2-1,2.38-2.44.77-1.71,2.76-1.73,4.38-.06,6.68,0,13.37,0,20,0,2-.18,3.39-2.74,3.39s-2.88-1.24-2.84-3.29C364.59,91.67,364.53,88.17,364.53,84.67Z"/><path class="cls-11" d="M393,80.26c0,4,.18,7.95-.06,11.9-.19,3.28-1.74,5.81-5.43,6.15-1,.1-2.39.47-2.82-1-.37-1.21-.58-2.64,1-3.24,2.48-1,2.5-3,2.52-5.12,0-4.77-.09-9.53,0-14.29.08-2.81-.84-4.19-3.82-3.94-1.73.15-3.49,0-5.24,0-1.26,0-2.13-.41-2.17-1.88s.75-2,2-2c4,0,7.94,0,11.91,0,2.09,0,2.16,1.38,2.16,2.9,0,3.49,0,7,0,10.48Z"/><path class="cls-10" d="M382.48,91.48c0,3.49-.06,7,0,10.45.05,2.13-.55,3.23-2.93,3.18-2.17,0-2.66-1.09-2.65-3q.07-10.69,0-21.38c0-1.85.37-3.05,2.58-3s3,1.14,3,3.28C382.42,84.51,382.48,88,382.48,91.48Z"/><path class="cls-12" d="M315.73,82.61c0-4.3,0-8.6,0-12.9,0-1.57.15-2.79,2.23-2.85s2.72,1,2.71,2.89q-.07,12.9,0,25.79c0,2-.6,2.93-2.74,2.86s-2.19-1.37-2.18-2.89C315.74,91.21,315.73,86.91,315.73,82.61Z"/><path class="cls-10" d="M290.89,75.28c0,1.9,0,3.8,0,5.7,0,1.69-1,2.12-2.47,2.1s-3,0-3-2c0-4.11-.07-8.23,0-12.34.05-2.08,1.76-1.81,3.17-1.85s2.33.65,2.3,2.25C290.86,71.17,290.89,73.23,290.89,75.28Z"/><path class="cls-10" d="M536.66,629.31v8.11c0,5.43-1.8,6.76-7.24,5.5-1-.24-1.82-.55-1.93-1.7s.08-2.17,1.15-2.31c2.91-.4,2.33-2.51,2.34-4.32,0-5.09,0-10.18,0-15.28a9.83,9.83,0,0,0-.09-2.37c-1.55-5.92-1.57-5.92,4.79-5.91,8.86,0,11.32,2.39,11.47,11.29.1,5.57,0,11.14,0,16.7,0,1.86.5,4-2.61,3.92s-2.31-2.44-2.34-4.15c-.08-5.41,0-10.82-.06-16.23a23.14,23.14,0,0,0-.82-5.14,2.6,2.6,0,0,0-2.94-1.9c-1.89.11-1.71,1.57-1.72,2.81C536.64,622,536.66,625.65,536.66,629.31Z"/><path class="cls-10" d="M652.3,580.25c0-3.71.06-6.57,0-9.44,0-1.91.48-2.94,2.66-2.94s2.78,1,2.71,2.91c-.25,6.35.48,12.72-.57,19.05-1.17,7-4,9.5-11.26,9.64-9.2.17-9.17.17-9.69-9-.34-6.19-.83-12.37-1.17-18.56-.09-1.76-.88-4,2.35-4,2.71,0,2.47,1.82,2.61,3.56.52,6.34,1,12.68,1.65,19,.21,1.86-1.24,4.89,2.54,5,3.37.14,6.37-.3,7.56-4.23S651.92,583.35,652.3,580.25Z"/><path class="cls-11" d="M619.86,586v8.12c0,5-2.59,6.81-7.41,5.26-.89-.28-1.38-.67-1.41-1.57s0-2.05,1.25-2.19c2.91-.32,2.36-2.51,2.38-4.32.05-5.09,0-10.19,0-15.28,0-1.38.41-3-1-3.93a2.42,2.42,0,0,1-1-3.28c.61-1.3,1.92-.86,3-.89,2.06-.05,4.14-.1,6.2,0,5.52.3,8.27,2.82,8.47,8.27.24,6.68.12,13.37.17,20,0,1.66,0,3.13-2.36,3.21-2.72.09-2.62-1.56-2.61-3.4q0-8.6,0-17.19a19.21,19.21,0,0,0-.32-3.79,3.06,3.06,0,0,0-3.33-2.76c-2.16.1-1.86,1.8-1.88,3.18C619.84,579,619.86,582.52,619.86,586Z"/><path class="cls-11" d="M688.38,626.66c0-3.82.22-7.65-.06-11.45-.26-3.48,1.16-4.24,4.38-4.22,9.7,0,12.09,2.23,12.19,12,.06,5.41,0,10.82,0,16.23,0,1.92-.09,3.46-2.71,3.36-2.46-.1-2.25-1.71-2.25-3.3q0-8.59,0-17.18A9.7,9.7,0,0,0,699,617c-1-1.67-2.55-1.74-4.18-1.53-1.9.24-1.46,1.81-1.46,3,0,6.84,0,13.68,0,20.52,0,1.7.38,3.59-2.42,3.6s-2.54-1.75-2.54-3.53Z"/><path class="cls-10" d="M592.73,584c0,1.74.1,3.5,0,5.23-.57,8.49-7.39,12.94-15.52,10.23-.87-.29-1.4-.66-1.41-1.58s0-2,1.26-2.18c.46-.09.94-.08,1.42-.13,8.83-.87,8.85-.87,8.82-9.82,0-3.17,0-6.36-.28-9.51-.24-2.48-1.69-4.18-4.47-3.82s-1.64,2.63-1.78,4.17a39.81,39.81,0,0,0,0,5.24c0,1.86-.85,2.51-2.62,2.47-1.53,0-2.37-.56-2.36-2.2q0-6,0-11.91c0-1.65.83-2,2.34-2.26,10.24-1.46,14.61,2.28,14.7,12.73,0,1.11,0,2.22,0,3.34Z"/><path class="cls-10" d="M644.51,629.93c0,5.25,0,10.5,0,15.74,0,2,.22,3.86-2.72,3.89s-2.89-1.68-2.88-3.77c.05-8.58-.11-17.17.09-25.75.07-3.34-.57-5.13-4.39-4.69-1.64.19-4.22.95-4.1-2.28.1-2.87,2.41-2,4-2,10-.28,10-.25,10,9.8Z"/><path class="cls-10" d="M591.09,625c0,2.85-.08,5.71,0,8.57.08,2.15-1,4.88,2.68,5.47,1,.16.86,1.61.59,2.52-.32,1.08-1.28,1.32-2.28,1.32-4,0-7.93,0-11.9,0-1.43,0-2.43-.54-2.4-2.24s1.27-2.18,2.58-1.93c5.76,1.1,6.06-2.23,5.77-6.57a104.19,104.19,0,0,1,0-12.37c.17-3.16-.62-4.77-4.15-4.42-1.66.16-4.21.9-4.06-2.32.13-2.85,2.43-1.93,4-2,9.18-.26,9.18-.23,9.18,8.72Z"/><path class="cls-10" d="M671,625c0,3.82.22,7.65-.06,11.45-.36,4.89-3.33,7.09-8.09,6.53-1.17-.14-2.29-.22-2.42-1.7-.11-1.19.12-2.4,1.56-2.48,3.79-.2,3.58-2.9,3.59-5.49,0-4.14.09-8.28,0-12.41-.06-2.27,1.18-5.15-2.8-5.88-1.24-.23-1.24-2.58-.3-3.26,2-1.49,4.61-.67,6.94-.59,2.11.08,1.65,2,1.67,3.32.06,3.51,0,7,0,10.51Z"/><path class="cls-10" d="M573.76,625.07c0,3.8.17,7.61,0,11.41-.26,4.92-3.67,7.37-8.47,6.45-1-.2-1.87-.41-1.91-1.63s-.14-2.45,1.41-2.51c3.86-.15,3.5-2.88,3.5-5.43,0-4.6,0-9.19,0-13.78,0-1.8.56-3.82-2.22-4.46-1.25-.3-1-1.81-.78-2.89s1.37-1.07,2.31-1.19c5.57-.75,6.25-.17,6.26,5.48v8.55Z"/><path class="cls-10" d="M610.14,629.94c0,3.34-.06,6.67,0,10,.05,1.85-.3,3-2.54,3-2,0-2.84-.89-2.82-2.88q.08-8.34,0-16.68c-.06-6.71-.12-6.82-6.87-7.94-1.55-.26-2.27-.8-2.22-2.39,0-1.39.79-1.79,2.07-2,7.28-1.39,11.9,2.05,12.26,9.39.16,3.16,0,6.35,0,9.52Z"/><path class="cls-11" d="M656.07,626.58c0,4.28,0,8.55,0,12.83,0,1.65,0,3.16-2.35,3.19-2.2,0-2.64-1.08-2.63-3q.06-12.82,0-25.65c0-1.87.44-3,2.63-3,2.39,0,2.36,1.52,2.35,3.19C656.06,618.35,656.07,622.47,656.07,626.58Z"/><path class="cls-11" d="M553.79,627.08c0-4.28,0-8.55,0-12.83,0-1.66-.09-3.18,2.32-3.2,2.15,0,2.67,1.05,2.66,2.94q-.06,12.82,0,25.64c0,1.87-.44,3-2.64,3-2.4,0-2.34-1.52-2.33-3.18C553.8,635.31,553.79,631.19,553.79,627.08Z"/><path class="cls-11" d="M648.59,578.55c0,2.53,0,5.07,0,7.61,0,1.71-.56,2.63-2.45,2.65s-2.54-.76-2.52-2.55c0-5.23,0-10.47,0-15.7,0-1.71.49-2.66,2.41-2.65s2.59.75,2.56,2.55C648.55,573.15,648.59,575.85,648.59,578.55Z"/><path class="cls-12" d="M680.89,627c-3.39.82-5.08-.14-4.7-4a76.71,76.71,0,0,0,0-8.58c0-1.91.06-3.4,2.67-3.41,2.42,0,3,1.09,2.88,3.21-.15,4-.14,7.94-.2,11.91Z"/><path class="cls-10" d="M621.68,624.33c1.71,1.07,6-2,6.05,2.14s-4.13,1.65-6.38,2.16a24,24,0,0,1-4.73.07c-1.5,0-2.43-.5-2.43-2.16s.79-2.26,2.35-2.22S619.7,624.33,621.68,624.33Z"/><path class="cls-10" d="M596.92,573.71c.33-2.66.7-5.32,1-8a2.06,2.06,0,0,1,2.49-2.13c1.77.13,2,1.5,1.72,2.75-.68,2.75-1.6,5.44-2.47,8.13-.32,1-.51,2.51-2,2.1S597.12,574.7,596.92,573.71Z"/><path class="cls-10" d="M608.18,567.5c-.77,2.17-1.8,5.12-2.86,8a1.18,1.18,0,0,1-1.47.83c-1-.27-.93-1.11-.83-1.91.34-2.8.69-5.61,1-8.41.2-1.52.59-2.84,2.6-2.42C608.42,564,608.14,565.39,608.18,567.5Z"/><path class="cls-10" d="M680.89,627l.69-.86C681.71,626.72,681.51,627,680.89,627Z"/><path class="cls-13" d="M170.13,297.26v7.64c0,6-1.23,7-7.33,5.88-1-.18-1.94-.24-1.91-1.56,0-.91-.19-2.18,1.09-2.26,3.3-.23,2.57-2.61,2.59-4.56,0-4.93,0-9.86,0-14.8a8.67,8.67,0,0,0-.26-3.28c-2.19-5.14-2.24-5.11,3.53-5.12,10.54,0,12.83,2.25,12.92,12.86,0,5.09,0,10.18,0,15.28,0,1.83.13,3.42-2.57,3.49-2.95.08-2.89-1.62-2.88-3.66.05-5.57,0-11.14,0-16.71a26.55,26.55,0,0,0-.3-4.28,2.8,2.8,0,0,0-3-2.52c-2.23,0-1.87,1.75-1.89,3.1C170.1,290.26,170.13,293.76,170.13,297.26Z"/><path class="cls-13" d="M159.47,342.34v6.2c0,5.71-1,6.51-6.68,5.57-1.16-.19-2.25-.29-2.26-1.83,0-1,.09-2.1,1.31-2.15,3-.12,2.5-2.23,2.5-4.08q0-6.68,0-13.36a7.5,7.5,0,0,0-.75-4.16,2.88,2.88,0,0,0-2.68-1.67c-1.56.14-1.41,1.46-1.54,2.52-.82,6.95-1.65,13.89-2.44,20.83-.24,2.12-.29,4.17-3.4,3.94-3.57-.28-1.88-2.69-1.74-4.22.49-5.22,1.4-10.4,1.75-15.63.19-2.88,1.74-6-1.49-8.69-1.33-1.12-.43-3.32,2.18-3.25,2.38.06,4.77-.08,7.15.05,4.46.23,7.12,2.66,7.56,7.07s.5,8.56.72,12.84Z"/><path class="cls-13" d="M70,383.75c0,3.67,0,7.33,0,11,0,1.7-.45,2.93-2.38,2.69-2.25-.29-4.86,1.14-6.68-1-.63-.74-.64-2.7.56-2.87,4.07-.55,2.81-3.5,2.87-5.77.11-4.46,0-8.92,0-13.38,0-1,0-1.92-.05-2.87-.17-1.77-3.24-3-1.52-4.88s4.25-.69,6.42-.71c9-.07,11.16,2.07,11.33,11.23.1,5.57,0,11.15,0,16.73,0,1.69.47,3.56-2.39,3.61s-2.84-1.8-2.84-3.78c0-5.57.06-11.15,0-16.72a22.62,22.62,0,0,0-.66-5.18,2.63,2.63,0,0,0-3-1.86c-1.93.09-1.69,1.56-1.7,2.79C69.94,376.42,70,380.09,70,383.75Z"/><path class="cls-13" d="M72.7,297.94v7.17c0,5.81-1.11,6.69-7,5.66-1-.16-1.94-.18-2.05-1.45s0-2.39,1.51-2.45c2-.08,2.29-1.22,2.28-2.83,0-5.24,0-10.48-.06-15.72A7.09,7.09,0,0,0,67,286a3,3,0,0,0-2.74-2.28c-1.89,0-1.7,1.54-1.84,2.74-.67,5.83-1.31,11.67-2,17.5-.17,1.58-.4,3.15-.55,4.73-.22,2.32-1.9,2.07-3.5,2.11-2.4.05-1.88-1.51-1.72-2.93.74-6.46,1.51-12.92,2.15-19.4.19-1.9.9-3.76-1.38-5.51-1.46-1.11-1.42-3.65,1.71-3.72,2.38-.05,4.76-.07,7.14,0,4.2.14,6.74,2.29,7.73,6.4S72.55,294.16,72.7,297.94Z"/><path class="cls-13" d="M131.47,334c0-3,0-6.05,0-9.07,0-1.82.7-2.59,2.54-2.55,1.63,0,2.81.31,2.77,2.32-.13,6.2.22,12.44-.39,18.59-.81,8.19-4,10.71-12.17,10.87-7.79.15-7.84.16-8.51-7.46-.61-7-1.12-13.95-1.64-20.93-.11-1.53-.57-3.24,2-3.4,2.4-.15,3,1,3.11,3.1.43,6.51.89,13,1.5,19.51.2,2-1.09,5.13,3,5.07,3.73,0,6.91-1,7.4-5.09.42-3.6.09-7.3.09-11Z"/><path class="cls-13" d="M101.44,380.38c-1.12,4.6-.32,9-.58,13.41-.1,1.65.52,3.59-2.33,3.71-3.14.14-2.68-1.92-2.69-3.79q0-4.77,0-9.54c0-.95-.23-2.13.23-2.81,3.08-4.48,4.48-8.92.75-13.77-.55-.72,0-1.51,1-1.59,1.42-.11,2.93-.4,3.73,1.27,1.25,2.57,2.47,5.15,3.68,7.74.94,2,1.83,4,3.14,6.85,3.1-4.36,1.69-8.51,1.87-12.32.11-2.48.46-4,3.4-3.64,1.3.17,2.21.64,2.06,2-.63,5.85,2.4,12.69-4.56,16.85-1.41.85-.45,1.94,0,2.9.91,2,2,4,2.72,6.08.39,1.1,2.42,2.63.19,3.52-1.69.67-3.69.56-4.7-1.86-1.78-4.25-3.8-8.39-5.72-12.58C103.26,382,103.13,381,101.44,380.38Z"/><path class="cls-13" d="M98.8,341.61v7.16c0,5.6-.6,6.09-6.35,5.36-1.12-.14-2.31,0-2.36-1.65,0-1.17,0-2.37,1.56-2.43,2-.07,2.24-1.29,2.23-2.88,0-5.25,0-10.51-.08-15.76,0-2.14-.74-4.51-3.29-4.48s-1.85,2.6-2,4.13c-.83,6.46-1.55,12.95-2.12,19.44-.22,2.44-.8,4-3.66,3.59-3-.42-1.71-2.47-1.54-4,.7-6.32,1.52-12.63,2.19-18.95.18-1.74,1.11-3.8-1.54-4.84-1-.37-1-1.6-.71-2.56.36-1.39,1.54-1.38,2.68-1.38,1.91,0,3.82-.05,5.73,0,5.87.19,8.41,2.33,9,8.27a108.42,108.42,0,0,1,.07,11Z"/><path class="cls-11" d="M96.12,297.06c0,3.5,0,7,0,10.51,0,1.34.41,3.21-1.84,3.11s-4.88,1-6.79-.77c-.67-.63-.83-2.75,1-3,3-.35,2.35-2.5,2.37-4.28.06-5.1,0-10.19,0-15.29,0-1.54,0-2.89-1.34-4.29-1.82-1.92-1.58-3.82,1.76-3.86h1c12.64-.35,14.35,1.31,14.37,14,0,4.93,0,9.87,0,14.81,0,1.63-.28,2.7-2.31,2.75s-2.74-.81-2.71-2.82c.09-5.89.06-11.78,0-17.67a19,19,0,0,0-.39-4.26,3,3,0,0,0-3.54-2.46c-1.79.24-1.56,1.75-1.57,3C96.1,290.05,96.13,293.56,96.12,297.06Z"/><path class="cls-13" d="M149.31,380.84c2.08-4.18.9-8,1.15-11.69.12-1.88,0-3.43,2.63-3.45,2.41,0,3,1.1,2.86,3.23-.13,2.54.1,5.09-.09,7.62-.12,1.55-.23,3.88-1.19,4.46-6.58,4-2.46,8.44-.57,12.55,1.51,3.27.84,4.17-2.63,4-3.32-.21-6.67-.06-10,0-1.63,0-3.29.15-3.22-2.3.07-2.18,1.59-1.93,3-2,6.91-.45,6.88-.45,4.15-6.81-2.57-6-5.07-12-7.59-18-.24-.57-.43-1.16-.71-1.94,3.48-1.46,5.42-.6,6.79,3S146.46,377.12,149.31,380.84Z"/><path class="cls-13" d="M133.16,379.69c0,3,0,6.05,0,9.07,0,1.92-.79,4.25,2.43,4.71,1,.13,1,1.52.81,2.49-.2,1.15-1,1.5-2.07,1.5H121.92c-1.33,0-2-.56-2.07-2,0-1.64.73-2.54,2.26-2.27,6.23,1.13,6.07-2.78,5.87-7a113,113,0,0,1,0-11.93c.19-3.23-.74-4.74-4.21-4.39-1.54.15-3.91.74-3.7-2.18.18-2.51,2.3-1.68,3.71-1.73,9.36-.33,9.36-.3,9.36,9C133.15,376.51,133.15,378.1,133.16,379.69Z"/><path class="cls-13" d="M49.94,298.72c0,5.25,0,10.5,0,15.75,0,1.83-.26,3-2.54,3s-3.08-.73-3.06-3c.09-8.91-.1-17.82.11-26.73.07-3.33-.95-4.59-4.3-4.29-1.68.14-4.26.83-4.12-2.33.13-2.89,2.52-1.82,4-1.86,9.86-.23,9.87-.19,9.87,9.46Q50,293.71,49.94,298.72Z"/><path class="cls-13" d="M141.76,294.74c0-1.91.06-3.81,0-5.72-.12-3.46-1.35-5.87-5.42-5.56-1.52.12-2.91-.14-2.92-2.2s1.5-2,3-2.07c6.56-.36,9.7,2.26,10.41,8.91a66.78,66.78,0,0,1-.12,15.22,9,9,0,0,1-11.59,7.45,1.85,1.85,0,0,1-1.47-2.07c0-.84.3-1.81,1.22-1.75,8.86.6,6.62-5.92,7-10.78,0-.47,0-.95,0-1.43Z"/><path class="cls-13" d="M122.63,298.72c0-5.42,0-10.83,0-16.24,0-2,.19-3.33,2.76-3.33s2.85,1.2,2.84,3.26c-.06,10.66-.08,21.33,0,32,0,2.25-.71,3.09-3,3.06s-2.61-1.13-2.59-3C122.67,309.23,122.63,304,122.63,298.72Z"/><path class="cls-13" d="M76.13,338.18q0,6,0,11.94c0,1.8.81,3.92-2.4,4.05S71,352.36,71,350.42c0-6.52-.17-13.06.09-19.58.13-3.41-1-4.59-4.32-4.19a38,38,0,0,1-4.77,0c-1.45,0-1.92-.93-1.91-2.19s.59-2.09,2-2.09H74c2.5,0,2.13,1.84,2.14,3.39,0,4.13,0,8.27,0,12.41Z"/><path class="cls-11" d="M83.45,294.89c0,4.3,0,8.6,0,12.89,0,1.78-.14,3-2.48,3s-2.53-1.24-2.52-3c0-8.59,0-17.19,0-25.78,0-2,.68-2.84,2.78-2.8s2.23,1.24,2.22,2.81C83.43,286.3,83.45,290.6,83.45,294.89Z"/><path class="cls-12" d="M157.14,294.9c0,4.29,0,8.59,0,12.88,0,1.79-.18,3-2.5,3s-2.48-1.28-2.47-3q0-12.88,0-25.76c0-1.59.17-2.74,2.25-2.79s2.76.83,2.72,2.82C157.08,286.31,157.14,290.6,157.14,294.9Z"/><path class="cls-13" d="M128.18,332.44c0,2.54-.07,5.08,0,7.62.07,2.06-.36,3.3-2.85,3.25-2.19-.05-2.64-1.09-2.61-3,.06-5.09.09-10.17,0-15.26,0-2.12.86-2.72,2.84-2.74,2.19,0,2.7,1.05,2.63,3C128.12,327.67,128.18,330.05,128.18,332.44Z"/><path class="cls-13" d="M85.4,373.4c0-1.74.07-3.48,0-5.21-.11-1.94.94-2.48,2.61-2.44,1.44,0,2.94-.06,2.93,2.09,0,4.1,0,8.21,0,12.31,0,1.77-1.19,2-2.57,2s-2.94,0-2.93-2.08S85.4,375.61,85.4,373.4Z"/><path class="cls-13" d="M109.79,330.65c0,1.59-.07,3.18,0,4.77.11,2.09-.46,3.24-2.9,3.2s-2.54-1.25-2.51-3.05c.06-3.33,0-6.67,0-10,0-1.66-.09-3.17,2.32-3.23s3.19.85,3.08,3.08C109.72,327.15,109.79,328.9,109.79,330.65Z"/><path class="cls-11" d="M65.23,344.1c0,2.38,0,4.77,0,7.15,0,1.71-.42,2.68-2.37,2.67-1.76,0-2.65-.57-2.63-2.46.06-4.77,0-9.55,0-14.32,0-1.69.47-2.62,2.41-2.67,2.25-.06,2.66,1.07,2.6,2.95C65.18,339.64,65.24,341.87,65.23,344.1Z"/><path class="cls-10" d="M248.67,644.55V652c0,5.77-.76,6.37-6.67,5.55-1-.13-2-.06-2.17-1.32s-.28-2.56,1.11-2.75c2.85-.38,2.48-2.35,2.48-4.24,0-4.92,0-9.85-.08-14.78,0-2-.63-4.13-2.93-4.27-2.78-.17-1.91,2.42-2.09,3.92-.8,6.46-1.43,13-2.15,19.42-.23,2-.11,4.27-3.32,4-3.77-.29-2.1-3-2-4.63.47-5.53,1.37-11,1.89-16.56.24-2.52,2-5.34-1.66-7.36-1.14-.62-.64-3,1.8-3,3,0,6.05-.09,9.05.16,3.5.29,5.18,2.65,6,5.88C249.07,636.45,248.47,640.92,248.67,644.55Z"/><path class="cls-10" d="M311,644.08c0,2.54,0,5.09,0,7.63,0,6.21-.49,6.62-6.85,5.87-1.13-.13-2.3,0-2.42-1.61-.09-1.18,0-2.39,1.48-2.54,2.31-.23,2.19-1.81,2.19-3.44,0-5.58,0-11.15,0-16.72a7.51,7.51,0,0,0-.09-1.9c-1.47-5.37-1.48-5.37,4.26-5.37,10,0,11.89,1.91,12,12,.07,5.25,0,10.5,0,15.75,0,1.83.54,3.94-2.65,3.83-2.87-.1-2.33-2-2.34-3.67,0-5.57,0-11.14,0-16.71a22.56,22.56,0,0,0-.59-4.7,3,3,0,0,0-3.53-2.47c-1.91.26-1.37,1.88-1.39,3C310.93,636.75,311,640.41,311,644.08Z"/><path class="cls-10" d="M225.9,644.52v7.3c0,6-.56,6.52-6.41,5.76-1.17-.15-2.25-.16-2.28-1.72,0-1.16-.05-2.37,1.49-2.47,2.28-.16,2.3-1.68,2.29-3.37,0-4.93,0-9.86-.05-14.78-.05-2.31-.6-5-3.32-5s-1.88,2.85-2.09,4.53q-1.23,9.69-2.13,19.42c-.21,2.2-.7,3.58-3.36,3.4-3.06-.19-2.07-2.18-1.88-3.76.7-6.15,1.56-12.29,2.19-18.45.22-2.13,1.4-4.48-1.71-6.11-1.22-.63-1.13-3.15,1.38-3.22a67.91,67.91,0,0,1,10,.28c3.27.4,4.66,3,5.33,6C226.29,636.55,225.72,640.86,225.9,644.52Z"/><path class="cls-10" d="M173.19,682a95.26,95.26,0,0,1-.06,10c-.7,6.52-8.25,10.94-14.31,8.66-1.6-.6-1.47-1.9-1.57-3.11-.67-8.39-1.23-16.78-2-25.16-.24-2.54.52-3.4,3.06-3.3,4,.16,7.95.18,11.91,0,2.67-.13,3.23,1.06,3.12,3.39-.13,3.17,0,6.35,0,9.53Zm-4.63,1.39h-.16c0-2.39-.15-4.78,0-7.15.28-3.71-2.27-3-4.41-3.11-2.44-.18-3.49.65-3.24,3.24.51,5.37.77,10.78,1.3,16.15.15,1.51-.65,4,2.07,4a3.85,3.85,0,0,0,3.82-3.64C168.36,689.74,168.38,686.56,168.56,683.4Z"/><path class="cls-11" d="M168.75,644.27c0,3.5-.06,7,0,10.49,0,2-.61,2.87-2.75,2.82s-2.27-1.17-2.26-2.77c0-5.88,0-11.76,0-17.64a20.65,20.65,0,0,0-.45-4.72,3,3,0,0,0-3.58-2.39c-1.79.3-1.46,1.84-1.47,3,0,6.68,0,13.35-.05,20,0,1.46.85,3.72-1.12,4.16a14.58,14.58,0,0,1-7-.19c-1.24-.36-1.42-2.94.25-3.26,3.44-.66,2.63-3,2.66-5.09.06-4.93,0-9.85,0-14.78,0-1.23.46-2.77-.69-3.58-1.39-1-2.08-2.14-1.3-3.58s2.29-.73,3.5-.76c12.71-.34,14.24,1.18,14.26,13.94Z"/><path class="cls-10" d="M238.3,700.7H223.79c-1.23,0-2.18-.25-2.25-1.77-.08-1.68.79-2.08,2.3-2.3,2.33-.33,5.75,1.52,6.72-1.28.59-1.72-1.4-4.37-2.31-6.56-2.61-6.3-5.27-12.59-8-19.06,3.71-1.44,5.78-.41,6.95,3.17,1,3,2.37,5.9,3.61,8.83.36.84.67,1.93,1.95,1.54.95-.29.89-1.26.9-2,.06-3,.14-6,0-9.07-.08-2.2.6-3.15,3-3.11s2.52,1.31,2.48,3.08c-.06,2.7.05,5.42-.09,8.12-.06,1.24-.11,3.09-.88,3.61-7.19,4.85-2,9.73-.25,14.62A15.05,15.05,0,0,1,238.3,700.7Z"/><path class="cls-10" d="M204.55,630c-1.63,7.57-3.61,16.54-5.46,25.54-.55,2.64-2.42,2.13-4.05,2-2.16-.23-1.16-1.78-.93-2.9,1.43-7,2.71-14,4.41-20.92.76-3.07.14-4-3-3.86-1.59.09-4.16,1-4.64-1a25.7,25.7,0,0,1-.09-8.49c.15-1.3,1.81-.89,2.88-.89a1.45,1.45,0,0,1,1.53,1.89c-1.1,5.63,2.79,4.64,6,4.74C202.88,626.09,205.53,625.06,204.55,630Z"/><path class="cls-11" d="M305.37,683.15c0,3-.06,6,0,9,.06,1.88-.88,4.3,2.36,4.75,1.2.17,1,1.43,1,2.36-.1,1.28-1.11,1.37-2.08,1.38-4,0-7.94,0-11.9,0-1.24,0-2.12-.31-2.16-1.83-.05-1.75,1-2.37,2.39-2.09,5.68,1.13,5.63-2.36,5.47-6.33-.19-4.6-.18-9.21,0-13.8.11-2.7-.8-3.65-3.51-3.58-1.55.05-4.38,1.24-4.18-2.06s2.91-1.72,4.47-1.76c8.14-.21,8.14-.13,8.14,8.21Z"/><path class="cls-10" d="M287.78,641.7a57.15,57.15,0,0,1-.06,8.07c-.84,5.79-5.21,8.71-11,7.81-1.25-.19-2.07-.45-2.13-1.92s.6-2.48,2.19-2.32c5.29.55,6-2.83,6-6.87s-.05-7.93-.22-11.89c-.12-2.93-1.49-4.75-4.76-4.64-1.51.06-3.45.4-3.28-2.15s2.25-1.71,3.62-1.75c6.28-.15,9.08,2.29,9.69,8.53.22,2.36,0,4.75,0,7.13Z"/><path class="cls-10" d="M187.3,641.8c-.13,2.39-.15,4.78-.4,7.14-.69,6.44-4.22,9.23-10.63,8.66-1.41-.13-2.52-.24-2.52-2,0-1.62.83-2.38,2.37-2.24,5,.45,5.86-2.64,5.84-6.59s0-7.63-.08-11.44c-.1-3.18-1.15-5.63-5.08-5.35-1.58.11-3.41.24-3.18-2.27.2-2.23,2-1.61,3.29-1.66,6.59-.25,9.34,2.12,10,8.65C187.14,637,187.17,639.42,187.3,641.8Z"/><path class="cls-11" d="M215.52,682.58c0,4.29.28,8.59-.07,12.85s-4.46,6.43-8.42,5.24c-.9-.28-1.35-.67-1.39-1.58,0-1.18.06-2.24,1.61-2.38,3.38-.31,3.31-2.8,3.3-5.27,0-4.29.08-8.59,0-12.88-.06-2.26,1.23-5.27-2.82-5.83-.92-.13-1-1.83-.5-2.49,1.81-2.2,4.4-.73,6.63-1,1.72-.24,2.09,1,2.08,2.41,0,3.66,0,7.32,0,11Z"/><path class="cls-11" d="M287,682.53c0,4.13.16,8.27-.05,12.39-.19,3.47-2.19,5.55-5.8,5.71-1,0-2.4.45-2.58-1.24-.11-1.06-.34-2.28,1.17-2.71A2.88,2.88,0,0,0,282,694q.15-9.54.08-19.07c0-1.8-1.54-1.72-2.81-1.75-2.07,0-4.14,0-6.2,0-1.33,0-2-.58-2-2s.76-1.94,2.07-1.94c4,0,7.95,0,11.92,0,2.15,0,2.11,1.4,2.1,2.88v10.49Z"/><path class="cls-11" d="M252.9,682.68c0,4,.24,8-.07,11.89-.37,4.73-3.07,6.65-7.69,6.14-1.17-.14-2.23-.14-2.25-1.73,0-1.25.26-2.14,1.73-2.29,3-.3,3.22-2.51,3.2-4.88,0-4.29.12-8.58,0-12.86-.1-2.35,1.47-5.62-2.89-6.24-.84-.12-1-1.89-.42-2.52,1.85-2.09,4.42-.71,6.66-1,1.8-.21,2,1.17,2,2.52,0,3.65,0,7.3,0,10.95Z"/><path class="cls-10" d="M192,680a13.78,13.78,0,0,1,.64-3.43c1-2.25,1-3.64-2-3.44-1.42.09-1.91-.76-1.9-2.1,0-1.52.9-1.86,2.15-1.86,3.33,0,6.66,0,10,0,1,0,1.89.25,2,1.52s0,2.37-1.57,2.39c-4.25.06-4.23,3.15-4.19,6,.08,6.23,2.12,12.16,3,18.28.15,1.12,1.61,3-1,3.26-1.65.16-3.44.53-4-2.09A149.7,149.7,0,0,1,192,680Z"/><path class="cls-12" d="M268.94,644.75c0,5.42,0,10.83,0,16.25,0,1.63.16,3.15-2.32,3.2s-2.83-1.26-2.83-3.28q.07-16,0-32c0-1.91.47-2.9,2.66-2.93s2.52,1.21,2.51,3C268.9,634.24,268.94,639.5,268.94,644.75Z"/><path class="cls-12" d="M298.31,642.1c0,4.11-.07,8.23,0,12.35.05,2.13-.49,3.19-2.9,3.14S293,656.3,293,654.53c0-8.55.05-17.11,0-25.66,0-1.94.5-2.89,2.65-2.88s2.78.79,2.74,2.8C298.25,633.23,298.31,637.66,298.31,642.1Z"/><path class="cls-10" d="M276.41,694c0,3.33,0,6.66,0,10,0,1.85.1,3.43-2.6,3.44-2.46,0-2.86-1.14-2.84-3.21q.11-10.23,0-20.46c0-2.07.4-3.24,2.86-3.22,2.69,0,2.59,1.64,2.58,3.47C276.39,687.31,276.41,690.64,276.41,694Z"/><path class="cls-12" d="M184.87,685c0,4.27,0,8.55,0,12.82,0,1.8-.21,3-2.51,3s-2.47-1.25-2.46-3q0-12.81,0-25.63c0-1.79.2-3,2.51-3s2.49,1.26,2.47,3C184.84,676.41,184.87,680.68,184.87,685Z"/><path class="cls-12" d="M260.25,684.69c0-4.27,0-8.54,0-12.82,0-1.58.16-2.71,2.24-2.74s2.76.7,2.75,2.75q-.11,13.05,0,26.11c0,2-.7,2.76-2.75,2.74s-2.26-1.15-2.24-2.74C260.27,693.56,260.25,689.12,260.25,684.69Z"/><path class="cls-10" d="M146.39,634.49c0,1.75,0,3.49,0,5.24s-.76,2.5-2.57,2.51-3-.36-3-2.59q.15-5.48,0-10.95c-.06-2.09.83-2.72,2.82-2.73s2.86.78,2.75,2.81S146.4,632.59,146.39,634.49Z"/><path class="cls-13" d="M735.84,245.05v5.73c0,6-1.06,6.94-6.87,5.93-1-.16-2-.16-2.08-1.44-.08-1.1-.24-2.53,1.28-2.63,3-.18,2.5-2.24,2.51-4.1q0-6.67,0-13.37a7.15,7.15,0,0,0-.8-4.15,2.94,2.94,0,0,0-2.73-1.62c-1.56.17-1.31,1.54-1.44,2.59-.87,7.1-1.8,14.19-2.54,21.31-.23,2.25-.84,3.61-3.4,3.41-3-.24-2-2.16-1.8-3.83.72-6,1.5-12,2.07-18,.21-2.19,1-4.37-1.5-6.44-1.5-1.25-.75-3.64,2.19-3.58,2.39.06,4.79-.1,7.16.09,4.41.35,7.05,2.78,7.44,7.24.37,4.27.48,8.57.71,12.85Z"/><path class="cls-13" d="M699.61,239.46c-1,4.6-.27,9.17-.46,13.67-.07,1.74.33,3.59-2.45,3.61s-2.58-1.67-2.56-3.5c0-3.66-.06-7.32.07-11,0-1.39.08-3.39.94-4,4-3.07,2.4-6.07.61-9.42-.55-1-2.3-2.66-.49-3.63a3.17,3.17,0,0,1,4.73,1.68c1.46,3.35,3,6.67,4.61,10,.58,1.18.73,3.34,2.49,3,1.92-.4,1.47-2.52,1.5-4.05.06-2.86.07-5.73,0-8.59,0-1.64.72-2.27,2.29-2.28s3.13.22,2.93,2.18c-.6,5.85,2.49,12.69-4.42,16.92-1.32.81-.63,1.89-.13,2.91a52.42,52.42,0,0,1,2.78,6.06c.37,1.1,2.51,2.57.33,3.54-1.66.73-3.73.69-4.77-1.71-1.84-4.22-3.81-8.4-5.8-12.55C701.38,241.28,701.37,240,699.61,239.46Z"/><path class="cls-13" d="M645.68,284c0-2.86-.32-5.77.1-8.57.39-2.64-2.51-7.05,3.78-7,10.3,0,12.06.77,12.24,7.52.19,7,0,14,.12,21,.05,2.57-1,3.13-3.38,3.23-12.86.55-12.86.61-12.86-12.29Zm5.45-.06h0c0,3.16,0,6.32,0,9.48,0,1.59.76,2.33,2.31,2.23,1.32-.08,3.27.5,3.3-1.64.08-6.31.07-12.63-.19-18.94-.08-2-1.88-2.8-3.87-2.55-2.21.29-1.48,2.09-1.53,3.35C651.06,278.52,651.13,281.21,651.13,283.9Z"/><path class="cls-13" d="M646.51,236.51c0-3,0-6,0-9.06,0-1.77.59-2.63,2.47-2.61,1.67,0,2.85.47,2.81,2.36-.12,6.82.57,13.67-.5,20.47a7,7,0,0,1-4.55,5.7c-3.24,1.27-6.6,2.25-9.91,3.36-1.38.46-2.42.39-3-1.29-.44-1.4-.05-2.2,1.3-2.46,2.64-.52,2.38-2.19,2.12-4.29q-1.18-9.69-1.92-19.43c-.12-1.57-1.58-4,1.75-4.39,2.95-.35,3.34,1.45,3.54,3.77q.78,9,1.87,18c.15,1.21-.8,3.39,1.32,3.42,1.78,0,2.5-1.91,2.56-3.54.14-3.33,0-6.67,0-10Z"/><path class="cls-13" d="M683.09,224.85a19.46,19.46,0,0,1,2.86,0c1.53.23,3.78-1,4.2,1.77s-1.72,2.29-3.36,2.74c-2.65.71-2.34,3.18-2.35,5.14,0,6.09,1.69,11.93,2.73,17.87.26,1.45,1.78,3.59-1.11,4.24-2.55.56-3.79-.61-4.09-3.22-.87-7.48-4.45-14.75-1.68-22.49.51-1.42-.26-1.69-1.32-1.67-1.81,0-3.21-.31-2.92-2.61.31-2.51,2.29-1.62,3.7-1.77A31,31,0,0,1,683.09,224.85Z"/><path class="cls-13" d="M623.35,242.81c0-2.06-.15-4.14,0-6.19.4-4.68.35-8.78-6.33-7.43a1.91,1.91,0,0,1-2.5-2.07c0-1.57.74-2.28,2.33-2.27,4,0,7.94,0,11.91,0,.94,0,2,0,2.3,1.16s.49,2.6-.75,2.93c-2.85.76-1.92,2.92-2,4.62-.08,6.51,0,13,0,19.53,0,1.7.43,3.6-2.38,3.62-2.63,0-2.66-1.55-2.63-3.44C623.38,249.8,623.35,246.3,623.35,242.81Z"/><path class="cls-11" d="M705.76,284.54c0,4.12,0,8.24,0,12.36,0,1.72-.06,3.11-2.42,3.11s-2.58-1.2-2.57-3c0-6.66-.21-13.32.11-20,.18-3.86-1.15-4.84-4.83-4.78-2.08,0-6.09,2-6.18-1.75-.09-4,4-1.86,6-1.91,9.86-.26,9.86-.12,9.86,9.78Z"/><path class="cls-11" d="M673.44,284.38c0,4.29-.05,8.57,0,12.85,0,2-.77,2.81-2.82,2.76s-2.16-1.34-2.16-2.87q0-12.84,0-25.69c0-1.8.2-3,2.52-3s2.48,1.37,2.46,3.11C673.42,275.82,673.44,280.1,673.44,284.38Z"/><path class="cls-11" d="M657.74,240.65c0-4.12,0-8.24,0-12.36,0-1.87,0-3.47,2.65-3.43,2.41,0,2.34,1.52,2.33,3.19q0,12.6,0,25.2c0,1.64.09,3.13-2.33,3.18-2.65,0-2.66-1.56-2.64-3.42C657.76,248.89,657.74,244.77,657.74,240.65Z"/><path class="cls-12" d="M689.6,289.94c0-2.39,0-4.78,0-7.16-.05-1.77.59-2.61,2.47-2.63s3,.51,2.94,2.67c-.08,4.93-.06,9.87,0,14.8,0,2-1.06,2.36-2.73,2.36s-2.73-.45-2.68-2.4C689.66,295,689.6,292.49,689.6,289.94Z"/><path class="cls-13" d="M684.67,276.52c0,1.73-.06,3.48,0,5.21s-.41,2.93-2.6,3c-2.36,0-3-1-2.93-3.15.11-3.47.13-6.95,0-10.42-.09-2.39,1.09-2.94,3.18-3,2.38,0,2.39,1.44,2.34,3.13S684.67,274.78,684.67,276.52Z"/><path class="cls-4" d="M168.56,683.4c-.18,3.16-.2,6.34-.59,9.48a3.85,3.85,0,0,1-3.82,3.64c-2.72,0-1.92-2.49-2.07-4-.53-5.37-.79-10.78-1.3-16.15-.25-2.59.8-3.42,3.24-3.24,2.14.16,4.69-.6,4.41,3.11-.18,2.37,0,4.76,0,7.15Z"/><path class="cls-5" d="M651.13,283.9c0-2.69-.07-5.38,0-8.07.05-1.26-.68-3.06,1.53-3.35,2-.25,3.79.53,3.87,2.55.26,6.31.27,12.63.19,18.94,0,2.14-2,1.56-3.3,1.64-1.55.1-2.32-.64-2.31-2.23,0-3.16,0-6.32,0-9.48Z"/><path class="cls-14" d="M419.36,451.48v6.68c0,6-.94,6.76-6.81,5.75-.95-.17-1.94-.14-2-1.47-.05-1.17,0-2.42,1.55-2.41,2.4,0,2.32-1.53,2.31-3.19,0-4.93,0-9.85,0-14.78a9.23,9.23,0,0,0-.37-2.82c-.46-1.43-1.36-2.63-3.05-2.52-1.88.11-1.46,1.75-1.6,2.91-.88,7.1-1.8,14.18-2.53,21.29-.22,2.1-.76,3.09-3.1,3-3.12-.06-2.14-2.11-2-3.65.63-6.16,1.44-12.3,2.05-18.46.21-2.14,1.46-4.42-1.65-6.1-1.19-.65-1-3.39,1.78-3.42,2.54,0,5.09-.12,7.62.06,4.43.3,7.12,2.75,7.41,7.19.26,3.95.06,7.93.06,11.9Z"/><path class="cls-15" d="M389.43,389.72c3.65-1.38,5.51-.39,6.71,2.77,1.35,3.55,3.16,6.92,4.75,10.38.35.76.77,1.53,1.68,1.38s1.16-1,1.18-1.83c.08-3.34.16-6.67.13-10,0-1.93.07-3.34,2.69-3.36s2.88,1.16,2.8,3.21c-.1,2.7.09,5.41-.08,8.1-.1,1.55-.17,3.85-1.13,4.48-6.59,4.33-2.09,8.67-.33,13,.29.72.59,1.44.93,2.29-3.53,1.51-5.24.17-6.52-3-1.83-4.55-4.06-8.93-6.12-13.39l-1.3,0c0,4.25.05,8.49,0,12.73,0,1.86.9,4.22-2.65,4.3s-2.72-2.23-2.75-4.13c0-3.34,0-6.67,0-10,0-.94-.05-2.24.5-2.76C395.09,399.07,392.31,394.31,389.43,389.72Z"/><path class="cls-14" d="M431.78,408.5v6.68c0,5.58-1.48,6.71-7,5.53-1-.22-1.82-.44-1.77-1.71,0-1,0-2.15,1.3-2.13,3.06,0,2.55-2.1,2.56-3.92,0-4.46.05-8.91,0-13.36a15.26,15.26,0,0,0-.65-4.19,2.69,2.69,0,0,0-3-1.91c-1.43.2-1.26,1.61-1.39,2.68-.87,7.1-1.81,14.19-2.51,21.3-.23,2.28-.73,3.46-3.34,3.27-3.22-.22-1.86-2.42-1.72-3.81.62-6.64,1.44-13.26,2.18-19.89.17-1.51.94-3.14-1.33-3.93-1.39-.48-1-1.84-.8-2.88.23-1.29,1.39-1,2.29-1.08.32,0,.64,0,.95,0,12.28-.44,14.2,1.4,14.28,13.64C431.79,404.68,431.78,406.59,431.78,408.5Z"/><path class="cls-15" d="M367.43,405c0-4.3.1-8.6,0-12.89-.07-2.24.65-3.21,3-3,2.06.15,4.14-.07,6.2.09,3.94.29,6.55,2.25,7.26,6.29,1.38,7.75.38,15.56.66,23.33.09,2.32-1.65,1.81-3,1.92-1.9.16-2.47-.77-2.45-2.56.06-5.88,0-11.77,0-17.65a41,41,0,0,0-.23-4.29c-.26-2.19-1.88-2.77-3.76-2.87-2.54-.13-2.16,1.76-2.16,3.29,0,6.52,0,13,0,19.56,0,2,1.12,4.67-2.82,4.58s-2.43-3-2.53-4.79C367.29,412.34,367.43,408.67,367.43,405Z"/><path class="cls-14" d="M367.5,365c0,2.7.16,5.42-.06,8.1-.13,1.68,1.41,4.34-2.33,4.47s-2.55-2.47-2.58-4.23c-.11-5.56,0-11.13,0-16.7a9.48,9.48,0,0,0-.95-5.09,3,3,0,0,0-3.27-1.45c-1.49.28-1.27,1.62-1.27,2.7,0,7,0,14-.05,21,0,1.26.83,3.3-1.2,3.57-2.46.31-5.17.86-7.43-.46-.7-.41-.9-2.93.56-3.15,3.34-.5,2.4-2.83,2.44-4.68.08-4.93,0-9.86,0-14.79,0-1.11.34-2.57-.23-3.27-4.23-5.21-.57-5.06,3.24-5.06,11.36,0,13.1,1.74,13.15,13.33C367.51,361.22,367.5,363.13,367.5,365Z"/><path class="cls-14" d="M373.39,360.67c-.21-3.81-.39-7.62-.66-11.42-.11-1.58-.79-3.2,1.89-3.29,2.19-.08,3.1.57,3.2,2.89.28,6.5.7,13,1.28,19.49.17,1.9-1.05,4.94,2.51,5.12,3.24.17,6.42-.09,7.84-3.89.93-2.47.76-5,.77-7.53,0-4.46,0-8.91,0-13.36,0-1.55,0-2.74,2.18-2.73s2.84.55,2.78,2.68c-.15,6.2.12,12.41-.27,18.59-.44,6.92-4.19,10.12-11.21,10.34-9.07.28-9.06.28-9.61-8.82-.17-2.69-.39-5.39-.59-8.08Z"/><path class="cls-14" d="M391.46,439.22c.38-3.76-2-2.56-3.49-2.91s-4,1.12-4.36-1.43c-.35-2.76-.66-5.71.37-8.42.16-.42,1.73-.43,2.64-.42a1.47,1.47,0,0,1,1.54,1.9c-.91,4.82,2.24,4.71,5.37,4.34,4-.48,4.83.84,3.82,4.76-2,7.85-3.63,15.81-5.18,23.77-.51,2.64-1.78,3.59-4.22,3-2.89-.65-.89-2.56-.67-3.74C388.61,452.92,390.13,445.76,391.46,439.22Z"/><path class="cls-15" d="M355,450a61.23,61.23,0,0,1,0-6.21c.5-4.78.19-8.61-6.33-7.29-1.53.31-2.29-.58-2.27-2.23,0-1.8,1.11-2,2.52-2,4,0,8,0,11.93,0,1,0,2.05-.08,2.34,1.12s.51,2.59-.79,2.9c-2.59.62-1.95,2.51-2,4.13-.05,6.69-.09,13.37,0,20.06,0,2.23-.22,3.57-3,3.51s-2.53-1.66-2.51-3.47C355,457,355,453.54,355,450Z"/><path class="cls-15" d="M354.33,389.12c1.9,0,3.81,0,5.71,0,1.06,0,2.4-.24,2.46,1.44,0,1.05.4,2.36-1.19,2.69-2.42.49-1.6,2.41-1.62,3.82q-.1,10.25,0,20.48c0,2-.18,3.25-2.74,3.23s-2.78-1.28-2.76-3.28c.07-6.35-.25-12.72.13-19.05.24-4.2-1-5.85-5.23-5.2-1.25.19-3.07.6-3.33-1.59-.13-1.11-.16-2.32,1.42-2.49a17.33,17.33,0,0,1,1.91-.06Z"/><path class="cls-15" d="M440.8,448.07c0,4.3-.12,8.6.05,12.89.09,2.32-.73,3.05-3,3s-2.57-1-2.55-2.95c.08-6.84-.12-13.69.1-20.53.09-3.09-.79-4.36-4-4a34,34,0,0,1-5.24,0c-1.6,0-1.61-1.2-1.6-2.36s.43-1.85,1.64-1.85c4.29,0,8.59-.06,12.89,0,1.82,0,1.67,1.56,1.67,2.83Z"/><path class="cls-15" d="M453.22,404.9c0,4.29-.11,8.59,0,12.88.08,2.33-.79,3-3,3s-2.5-1.24-2.48-3c0-6.84-.13-13.69.08-20.52.1-3.12-.85-4.34-4-4a35.26,35.26,0,0,1-5.24,0c-1.6,0-1.58-1.2-1.58-2.35s.5-1.77,1.68-1.77c4.14,0,8.27,0,12.41,0,2.14,0,2.12,1.4,2.12,2.9C453.21,396.31,453.22,400.6,453.22,404.9Z"/><path class="cls-14" d="M406.43,373.39a34.87,34.87,0,0,1-4,3.44c-1.1.7-2.9,1.59-3.53-.31-.44-1.34-1.21-3.51,1.71-4,3.92-.61,5-3.68,5-7-.12-4.42-.7-8.84-1.09-13.25-.07-.8-.22-1.77-1.07-1.94-1.76-.35-3.16-1-2.48-3,.78-2.37,2.94-1,4.46-1.23s3.33-.58,3.6,1.85q1.55,13.94,3.13,27.88c.14,1.21-.41,1.84-1.59,1.74s-2.67.69-3.31-1A22.67,22.67,0,0,1,406.43,373.39Z"/><path class="cls-14" d="M379.84,448.57c0,2.06.13,4.14,0,6.19-.48,7.1-4,10-11,9.15-1.09-.13-2.25,0-2.31-1.65s.61-2.46,2.21-2.29c5.66.61,6.14-3.15,6.15-7.26,0-3.66.09-7.32-.1-11-.16-3.18-1.39-5.56-5.26-5.22-1.64.14-3.26.13-3.11-2.34.13-2.26,1.76-1.82,3.11-1.87,6.54-.25,9.75,2.55,10.27,9.1C380,443.79,379.84,446.18,379.84,448.57Z"/><path class="cls-14" d="M422.41,346a23.94,23.94,0,0,1,3.79,0c1.41.21,3.37-1.06,4.11,1.07.64,1.83-.41,2.62-2.16,3.33-1.17.48-.59,2.31-.6,3.54,0,6.82-.06,13.63,0,20.45,0,2-.21,3.25-2.76,3.19s-2.33-1.51-2.32-3.14c0-6.66-.19-13.33.07-20,.14-3.51-.81-5.1-4.46-4.5a14.55,14.55,0,0,1-2.38,0c-1.4,0-1.92-.7-1.95-2.06s.63-2,2-1.95C418,346,420.19,346,422.41,346Z"/><path class="cls-14" d="M450.74,361.61c0,4.44-.09,8.89,0,13.33.06,2.15-.81,2.67-2.8,2.67s-2.28-1.05-2.27-2.68c0-7-.14-14,.09-20.95.1-3.12-.77-4.37-4-4a38,38,0,0,1-5.23,0c-1.55,0-1.67-1.09-1.68-2.28s.61-1.69,1.75-1.69h12.38c2,0,1.66,1.52,1.67,2.73C450.76,353,450.74,357.32,450.74,361.61Z"/><path class="cls-15" d="M447.77,448c0-4.29.06-8.57,0-12.86-.05-2,.54-2.9,2.67-2.88,2,0,2.86.61,2.84,2.74q-.12,13.09,0,26.2c0,2.06-.65,2.75-2.7,2.81-2.44.09-2.91-1-2.84-3.15C447.87,456.56,447.77,452.27,447.77,448Z"/><path class="cls-14" d="M440,367.77c0,2.38-.1,4.76,0,7.14.12,2.08-.69,2.73-2.74,2.7s-2.43-.83-2.41-2.57c.06-4.92.05-9.83,0-14.75,0-1.81.66-2.55,2.51-2.52s2.7.42,2.63,2.39C439.88,362.69,440,365.23,440,367.77Z"/><path class="cls-14" d="M386.54,356.18c0,2.69-.06,5.38,0,8.07.06,1.84-.67,2.51-2.5,2.5s-2.58-.61-2.55-2.47c.06-5.38.08-10.77,0-16.15,0-2.15,1.23-2.12,2.76-2.16s2.34.43,2.29,2.13C386.48,350.79,386.54,353.48,386.54,356.18Z"/><path class="cls-14" d="M429.61,454.25a24.85,24.85,0,0,1-.07,4.73c-.35,1.77,1.71,4.82-2.32,4.89-4.4.08-2.36-3.24-2.54-5.12a50.78,50.78,0,0,1,0-9.47c.16-1.76-1.74-4.75,2.3-4.9s2.33,2.85,2.58,4.66A39.32,39.32,0,0,1,429.61,454.25Z"/><path class="cls-14" d="M442,411c0,2.39-.06,4.78,0,7.16.06,1.74-.42,2.55-2.37,2.59-2.13,0-2.75-.73-2.7-2.77.12-4.76.08-9.54,0-14.31,0-1.71.42-2.59,2.37-2.63,2.14-.05,2.78.81,2.68,2.81C441.94,406.24,442,408.63,442,411Z"/></g></g></svg>